<?xml version="1.0" encoding="UTF-8"?>
<svg id="Layer_1" data-name="Layer 1" xmlns="http://www.w3.org/2000/svg" viewBox="0 0 100 104.93">
  <defs>
    <style>
      .cls-1 {
        fill: #fff;
        stroke-width: 0px;
      }
    </style>
  </defs>
  <path class="cls-1" d="M29,104.93c-3.84-3.35-2.63-7.88-2.74-12.06-.31-11.5,1.75-8.99-9.71-12.94C10.9,77.99,5.51,75.29,0,72.93c0-7.67,0-15.33,0-23,3.63,4.07,7.27,8.14,10.9,12.21.55.61,1.37,1.15,1.59,1.87,2.95,9.65,10.82,13.43,19.42,16.23,2.35.76,3.66,1.67,3.55,4.42-.21,4.82.16,9.68-.18,14.49-.14,1.97-1.48,3.85-2.27,5.78h-4Z"/>
  <path class="cls-1" d="M100,72.93c-5.04,2.21-9.94,4.89-15.16,6.54-13.63,4.3-10.38,1.83-11.09,14.93-.19,3.55-1.79,7.02-2.75,10.53h-4c-.8-3.59-1.75-7.15-2.36-10.78-1.38-8.28.22-14.27,9.96-16.64,5.95-1.45,10.58-6.14,12.67-12.53.34-1.03,1.22-1.92,1.96-2.78,3.57-4.11,7.18-8.19,10.77-12.28v23Z"/>
  <path class="cls-1" d="M60.29,6.32c2.99,5.58.79,13.07-4.22,15.98-5.74,3.33-12.46,1.72-16.13-3.88-3.36-5.13-1.59-12.81,3.21-16.31C45.75.21,48.63,0,50.07,0c.53.04,7.21.69,10.22,6.32Z"/>
  <path class="cls-1" d="M64.83,43.13c6.09-5.37,12.79-7.11,20.77-4.45,1.98.66,4.85-.7,7.11-1.62,3.68-1.5,6.18-.44,6.31,3.51.07,2.21-.57,4.64-1.55,6.65-4.93,10.23-13.78,15.88-23.95,19.83-2.88,1.12-5.47.58-6.36-2.68-.83-3.05.54-4.92,3.85-5.7,6.48-1.53,11.98-4.88,16.12-10.18.95-1.22,1.4-2.85,2.08-4.29-.42-.32-.85-.63-1.27-.95-3.26,3.04-6.51,6.07-10.54,9.83-.27-3.23-.45-5.37-.64-7.66-4.49,2.63-8.72,5.17-13.02,7.57-1.43.8-3.13,1.81-4.61,1.67-1.69-.15-3.28-1.47-4.92-2.28.87-1.42,1.45-3.2,2.68-4.17,2.53-1.99,5.41-3.54,8.14-5.27l-.18.18Z"/>
  <path class="cls-1" d="M23.26,45.64c-.12,1.96-.25,4.01-.45,7.36-3.98-3.7-7.24-6.72-10.49-9.74-.43.26-.85.52-1.28.78.58,1.4.89,3.01,1.77,4.17,4.08,5.35,9.59,8.79,16.05,10.36,3.58.87,5,2.73,4.01,6-1,3.3-3.75,3.47-6.52,2.36-10.14-4.05-18.99-9.74-23.83-20.04-.95-2.02-1.54-4.48-1.4-6.68.23-3.66,2.69-4.15,6.16-3.39,4.37.96,9.13,1.43,13.5.71,3.67-.6,6.31-.21,9.21,1.93,4.13,3.03,8.68,5.5,12.78,8.57,1.39,1.04,1.97,3.17,2.92,4.81-1.89.54-4.21,2.07-5.6,1.46-5.71-2.49-11.13-5.63-16.85-8.64Z"/>
  <path class="cls-1" d="M65.02,42.95c-1.09.23-2.19.47-3.64.78-.19-3.67-.37-7.16-.56-10.65-.69-.06-1.39-.11-2.08-.17-.38,4.05-.76,8.1-1.19,12.66h-15.35v-12.84q-2.81,1.53-3.46,10.97c-3.83-.92-6.17-2.8-5.9-7.07.13-1.99-.1-4,.07-5.98.45-5.3,5.38-8.19,10.05-5.6,4.83,2.68,9.28,2.72,14.13.06,4.99-2.74,9.92.14,10.14,5.85.16,4.19,1,8.63-2.38,12.17,0,0,.18-.18.18-.18Z"/>
  <path class="cls-1" d="M84.95,35.49c-6.69,0-12.09-5.41-12.03-12.04.06-6.76,5.33-11.89,12.17-11.84,6.7.04,11.87,5.44,11.73,12.25-.14,6.54-5.34,11.63-11.87,11.63Z"/>
  <path class="cls-1" d="M14.85,11.61c6.56.07,12.06,5.75,11.83,12.22-.23,6.62-5.75,11.78-12.45,11.63-6.49-.14-11.4-5.33-11.34-11.99.06-6.93,5.11-11.94,11.96-11.87Z"/>
  <path class="cls-1" d="M40.53,82.75c2.68.14,4.93.25,7.81.4,0,3.23.44,6.39-.2,9.3-.29,1.34-2.65,2.94-4.18,3.06-1.04.09-3.03-2.04-3.28-3.41-.52-2.85-.16-5.86-.16-9.35Z"/>
  <path class="cls-1" d="M59.25,83.01c0,3.42.25,6.4-.07,9.32-.34,3.21-4.67,4.98-6.03,2.47-1.51-2.78-1.6-6.52-1.51-9.82.02-.76,3.28-1.49,5.09-2.1.56-.19,1.26.05,2.52.13Z"/>
</svg>