<?xml version="1.0" encoding="UTF-8"?>
<svg id="Layer_1" data-name="Layer 1" xmlns="http://www.w3.org/2000/svg" viewBox="0 0 75.06 100.78">
  <defs>
    <style>
      .cls-1 {
        fill: #fff;
        stroke-width: 0px;
      }
    </style>
  </defs>
  <path class="cls-1" d="M55.61,7.36c.63.01,1.99-.01,3.44.74,2.48,1.28,3.83,4.08,4.66,7.32,1.05,4.07,2.42,8.2,4.46,11.86,3.66,6.56,3.47,8.8-1.67,14.52-1.5,1.67-2.35,4.32-2.61,6.63-.86,7.5-4.01,10.41-11.41,11.13-2.75.27-5.56,1.88-7.93,3.49-5.58,3.78-8.37,3.68-14.03.04-2.76-1.78-6.16-3.02-9.41-3.49-5.46-.79-9.41-4.24-9.7-10.18-.18-3.72-1.18-6.61-4.14-9.11-3.72-3.15-3.9-7.28-1.23-11.22,3.03-4.47,5.29-9.01,5.73-14.6.2-2.55,1.43-4.7,3.35-5.96,1.75-1.14,3.59-1.15,4.37-1.16C27.66,7.16,30.35-.16,37.71,0c7.18.15,10.08,7.23,17.9,7.36ZM57.67,33.63c.07-11.32-8.84-20.48-20.02-20.58-11.22-.1-20.31,8.9-20.38,20.18-.08,11.35,8.76,20.48,19.99,20.64,11.07.16,20.34-9.04,20.41-20.25Z"/>
  <path class="cls-1" d="M16.28,97.98c-1.24-4.4-3.02-5.89-4.47-6.4-1.42-.5-3.61-1.23-7.46-.01-3.77,1.19-5.34-.7-3.72-4.12,3.33-7,7.06-13.81,10.52-20.49,7.33,3.04,14.12,5.86,21.18,8.78-4.3,8.84-8.04,16.55-11.79,24.26-.11.08-1.16.84-2.41.45-1.03-.33-1.78-1.31-1.85-2.46Z"/>
  <path class="cls-1" d="M54.55,100c-1.82-3.88-3.56-7.8-5.47-11.64-1.91-3.83-3.98-7.59-6.64-12.61,4.71-1.77,8.89-3.28,13.01-4.93,2.71-1.09,5.33-2.4,8.49-3.83,3.45,6.66,7.13,13.49,10.52,20.47,1.18,2.42.71,5.55-2.73,4.25-8.61-3.26-11.47,2.15-14.19,8.31-.07.09-.53.71-1.36.77-1,.07-1.6-.72-1.64-.77Z"/>
  <path class="cls-1" d="M29.72,45.49c3.24-6.51,1.16-10.76-4.51-14.41,6.65.21,11.08-1.93,12.24-9.26,1.51,6.93,5.48,9.69,12.42,9.15-5.71,3.73-7.89,8.1-4.37,14.6-5.48-4.35-10.46-4.8-15.79-.08Z"/>
</svg>