<?xml version="1.0" encoding="UTF-8"?>
<svg id="Layer_1" data-name="Layer 1" xmlns="http://www.w3.org/2000/svg" viewBox="0 0 100 92">
  <defs>
    <style>
      .cls-1 {
        fill: #fff;
        stroke-width: 0px;
      }
    </style>
  </defs>
  <g>
    <path class="cls-1" d="M65,92c-.7-1.44-1.98-2.86-2.02-4.32-.27-10.69-1.77-21.5,3.86-31.56,3.93-7.03,4.62-14.8,4.25-22.75-.11-2.23.05-5.12,1.34-6.62,1.75-2.03,4.93-4.42,7.09-4.08,2.43.38,5.73,3.31,6.32,5.7,1.62,6.58,2.12,13.46,2.79,20.25.11,1.07-1.22,2.29-1.88,3.43-.79-1.07-2.1-2.05-2.28-3.22-.95-6.08-1.42-12.24-2.5-18.29-.27-1.51-2.16-2.73-3.31-4.09-1.1,1.47-3.26,3.05-3.12,4.39,1.34,13.01-3.72,24.44-8.09,36.13-1.09,2.93-.77,6.54-.45,9.77.12,1.21,2.01,2.31,3.19,3.35.97.86,2.08,1.55,3.13,2.32-1.05.56-2.11,1.08-3.13,1.68-1.06.63-2.08,1.34-3.11,2.01,1.05.51,2.09,1.44,3.15,1.47,5.16.15,10.33.18,15.48-.02,1.16-.05,2.28-1.18,3.42-1.81-.23-.56-.45-1.12-.68-1.67-3.13,0-6.28.16-9.4-.09-1-.08-1.91-1.22-2.87-1.87.99-.67,1.92-1.78,2.98-1.91,2.44-.29,4.93-.09,7.18-.09,2.53-7.91,4.95-15.32,7.28-22.76,4.45-14.19-.48-30.97-11.85-40.64-3.8-3.24-7.42-6.72-11.42-9.69-1.57-1.17-3.95-1.25-5.96-1.82.71,1.9.95,4.23,2.21,5.62,2.89,3.17,6.28,5.87,9.85,9.12-1.47,1.03-2.6,1.82-3.55,2.49-3.2-2.93-6.14-5.63-9.08-8.32C57.85,8.62,57.89,5.2,64,0,65.67,0,67.33,0,69,0c.45.44.89.9,1.37,1.32,10.24,9.04,22.61,16.23,26.38,30.84.86,3.34,2.16,6.56,3.26,9.84v9c-2.77,8.76-5.59,17.5-8.25,26.29-.33,1.09.02,2.52.41,3.67,1.35,3.9,1.66,7.61-1.16,11.04h-26Z"/>
    <path class="cls-1" d="M36,0c6.13,5.32,6.15,8.61.09,14.08-2.35,2.12-4.55,4.44-7.11,6.26-1.22.87-3.11.8-4.69,1.16l-.63-1.72c3.54-3.21,7.21-6.29,10.53-9.7,1.03-1.06,1.12-3.03,1.64-4.58-1.75.15-4.02-.35-5.16.57-5.98,4.77-12.99,9-17.16,15.12C6.79,31.08,1.74,42.25,5.66,54.99c2.53,8.24,5.21,16.44,7.49,23.62,2.74,1.52,4.8,2.65,6.87,3.79-2.21.57-4.42,1.14-6.64,1.7-.63.16-1.27.28-3.08.67,1.5,1.32,2.35,2.72,3.25,2.75,5.65.21,11.32.18,16.98.03.82-.02,1.62-1.11,2.42-1.71-.79-.59-1.53-1.27-2.39-1.73-1.29-.69-2.67-1.23-4.02-1.83,1.27-.73,2.62-1.35,3.77-2.23,1.04-.8,2.59-1.85,2.63-2.85.15-3.58.58-7.47-.59-10.71-4.1-11.42-9.23-22.48-7.84-35.17.16-1.49-2.05-3.24-3.17-4.87-1.18,1.51-3.11,2.88-3.41,4.55-1.07,5.88-1.47,11.88-2.38,17.8-.18,1.17-1.48,2.17-2.27,3.24-.64-1.31-1.91-2.67-1.8-3.91.55-6.29,1.43-12.56,2.27-18.83.55-4.17,2.95-6.87,7.18-6.94,4.46-.07,6.84,2.92,7.92,6.99.21.79.24,1.67.13,2.48-1.48,10.89,2.41,20.66,6.4,30.36,2.16,5.25,3.01,10.44,1.77,16.06-.52,2.35.2,4.96-.15,7.38-.31,2.17-1.31,4.24-2,6.35H9c-2.8-3.43-2.51-7.13-1.16-11.03.44-1.28.71-2.89.33-4.13C5.56,68.19,2.75,59.6,0,51c0-3,0-6,0-9C3.67,22.67,16.48,10.3,32,0h4Z"/>
    <path class="cls-1" d="M50.21,31.13c-5.51.08-9.89-4.13-10.01-9.63-.12-5.43,4.22-9.94,9.66-10.05,5.42-.11,9.92,4.25,10.01,9.69.08,5.48-4.2,9.91-9.65,9.99Z"/>
    <path class="cls-1" d="M30.89,29.06c-2.85-6.49,2.24-8.28,4.5-11.32,1.82,4.84-2.17,7.11-4.5,11.32Z"/>
    <path class="cls-1" d="M68.07,28.27c-1.65-3.28-3.3-6.57-4.95-9.85.56-.27,1.13-.55,1.69-.82,2.27,3.02,6.81,4.93,4.99,9.98-.58.23-1.16.46-1.74.69Z"/>
  </g>
  <path class="cls-1" d="M65.12,40.07c-1.76-3.09-4.21-5.79-6.43-8.76-.74.64-3.71,3.05-8.2,3.06-4.52.01-7.52-2.42-8.26-3.06-2.22,2.97-4.67,5.67-6.43,8.76-2.06,3.62-.78,8.11,3.05,9.74,3.02,1.29,3.26,3.12,3.2,5.77-.11,5.65-.34,11.34.17,16.95.17,1.9,2.21,4.91,3.75,5.15,3.36.52,3.51-2.62,3.51-5.22,0-4.8,0-9.61,0-14.41.39,0,.78.01,1.17.02h0c.26-.02.52-.02.78-.02,0,4.8,0,9.61,0,14.41,0,2.6.15,5.74,3.51,5.22,1.54-.24,3.58-3.25,3.75-5.15.51-5.61.28-11.3.17-16.95-.05-2.65.18-4.49,3.2-5.77,3.82-1.63,5.11-6.13,3.05-9.74ZM47.98,48.86c-.41.62-1.34.79-2,.29-2.43-.86-4.86-1.71-7.29-2.57-.15-.26-1.53-2.64-.43-5,.44-.95,1.12-1.54,1.57-1.86-.1.36-.5,1.99.43,3.57.5.85,1.18,1.34,1.57,1.57,1.86.67,3.71,1.33,5.57,2,.77.39,1,1.36.57,2ZM62.23,46.57c-2.43.86-4.86,1.71-7.29,2.57-.66.5-1.59.33-2-.29-.43-.64-.2-1.61.57-2,1.86-.67,3.71-1.33,5.57-2,.39-.23,1.07-.72,1.57-1.57.93-1.58.53-3.22.43-3.57.45.32,1.13.91,1.57,1.86,1.1,2.36-.28,4.74-.43,5Z"/>
</svg>