<?xml version="1.0" encoding="UTF-8"?>
<svg id="Layer_1" data-name="Layer 1" xmlns="http://www.w3.org/2000/svg" viewBox="0 0 97.79 98">
  <defs>
    <style>
      .cls-1 {
        fill: #fff;
        stroke-width: 0px;
      }
    </style>
  </defs>
  <g>
    <path class="cls-1" d="M64.64,60.14c-.02,1.9-1.27,3.37-2.57,3.54-1.58.2-3.56-1.49-3.43-3.96-.07-4.04-.14-8.07-.21-12.11h-1.71c.18,11.14.36,22.29.54,33.43.01,1.86-1.38,3.33-2.89,3.43-1.74.12-3.51-1.58-3.32-3.75l-.08-15.19c.22-1.5-.87-2.68-1.85-2.7-1-.02-2.15,1.14-1.96,2.67l.13,15.55c.16,1.91-1.42,3.42-3,3.32-1.57-.1-2.95-1.77-2.57-3.64-.14-11.02-.28-22.04-.42-33.05l-1.54-.05c.01,3.78.02,7.57.03,11.35.3,2.83-1.82,4.89-3.55,4.82-1.67-.07-3.53-2.14-3.2-4.82-.07-3.17-.13-6.33-.2-9.5l-1.62.11v33.62l-6.22-3.77c-.11-5.39-.21-10.79-.32-16.18-.04-.06-.44-.62-1.18-.64-.7-.02-1.13.47-1.18.54-.11,4.93-.21,9.86-.32,14.79-2.11-1.82-4.21-3.64-6.32-5.46.07-7.86.14-15.71.21-23.57-.46.04-.93.07-1.39.11-.04,3.64-.07,7.29-.11,10.93.15,1.63-1.11,2.97-2.46,3-1.43.03-2.79-1.39-2.57-3.11-.04-4.64-.07-9.29-.11-13.93.51-1.42,1.74-4.23,4.57-6.49,1.64-1.31,3.15-1.93,3.97-2.21,6.44-2.23,12.9-1.58,17.85,4.77.72-1.13,3.37-4.99,8.57-6.63,4.03-1.27,7.41-.5,8.85-.15,6.58,1.6,10.21,6.5,11.25,8.04.11,5.64.21,11.29.32,16.93Z"/>
    <path class="cls-1" d="M48.79,32.73c-4.49-.13-8.12-3.95-8.05-8.48.07-4.52,3.83-8.29,8.27-8.3,4.64-.01,8.47,4.03,8.29,8.76-.17,4.52-4.02,8.14-8.52,8.02Z"/>
    <path class="cls-1" d="M23.77,34.19c-4.62.02-8.48-3.74-8.37-8.15.11-4.3,4.25-8.21,8.59-8.11,4.12.09,7.97,3.92,8.06,8.03.1,4.44-3.69,8.2-8.28,8.23Z"/>
  </g>
  <path class="cls-1" d="M48.89,4c24.79,0,44.89,20.15,44.89,45s-20.1,45-44.89,45S4,73.85,4,49,24.1,4,48.89,4M48.89,0C21.93,0,0,21.98,0,49s21.93,49,48.89,49,48.89-21.98,48.89-49S75.85,0,48.89,0h0Z"/>
  <g>
    <path class="cls-1" d="M61.54,61.64c.93-.57,1.86-1.14,2.79-1.71.26-3.12.51-6.24.77-9.36l1.62.11v33.62l6.22-3.77c.11-5.39.21-10.79.32-16.18.04-.06.44-.62,1.18-.64.7-.02,1.13.47,1.18.54.11,4.93.21,9.86.32,14.79,2.11-1.82,4.21-3.64,6.32-5.46-.07-7.86-.14-15.71-.21-23.57.46.04.93.07,1.39.11.04,3.64.07,7.29.11,10.93-.15,1.63,1.11,2.97,2.46,3,1.43.03,2.79-1.39,2.57-3.11.04-4.64.07-9.29.11-13.93-.51-1.42-1.74-4.23-4.57-6.49-1.64-1.31-3.15-1.93-3.97-2.21-1.34-.46-5.94-2.28-11.14-.34-3.63,1.35-5.77,3.84-6.71,5.12l-.75,18.58Z"/>
    <path class="cls-1" d="M74.16,35.29c4.62.02,8.48-3.74,8.37-8.15-.11-4.3-4.25-8.21-8.59-8.11-4.12.09-7.97,3.92-8.06,8.03-.1,4.44,3.69,8.2,8.28,8.23Z"/>
  </g>
</svg>