<?xml version="1.0" encoding="UTF-8"?>
<svg id="Layer_6" data-name="Layer 6" xmlns="http://www.w3.org/2000/svg" viewBox="0 0 306.05 366.74">
  <defs>
    <style>
      .cls-1 {
        letter-spacing: -.03em;
      }

      .cls-2 {
        font-family: CoolveticaRg-Regular, Coolvetica;
        font-size: 53.26px;
      }

      .cls-2, .cls-3 {
        fill: #8fbade;
      }

      .cls-4 {
        letter-spacing: -.02em;
      }

      .cls-3 {
        stroke-width: 0px;
      }
    </style>
  </defs>
  <g>
    <g>
      <path class="cls-3" d="M142.75,30.03c.5-12.28-7.55-24.12-20.38-28.42-15.4-5.16-31.86,2.49-36.75,17.1-2.5,7.45-1.49,15.27,2.13,21.83-23.33,13.28-40.06,37-43.88,64.87,4.22-6.15,28.9-40.83,76.48-48.92,48.03-8.17,83.03,16.91,88.96,21.32-13.27-26.34-38.52-43.83-66.56-47.78Z"/>
      <path class="cls-3" d="M58.55,232.6c-32.27-36.5-29.41-79.46-28.8-86.83-13.04,21.33-16.14,46.63-9.82,69.63-8.53,2.49-15.62,8.75-18.56,17.51-4.89,14.6,3.63,30.63,19.03,35.79,11.36,3.81,23.28.64,30.72-7.14,25.11,19.06,59.43,23.55,89.31,10.24-7.46-.34-49.93-3.02-81.9-39.18Z"/>
      <path class="cls-3" d="M285.64,169.5c-3.64-1.22-7.35-1.72-10.94-1.58-2.37-27.3-17.5-52.85-41.99-67.81,3.95,6.34,25.83,42.83,14.18,89.68-11.76,47.28-48.77,69.29-55.18,72.96,29.79-1.62,56.2-18.1,70.96-42.68,1.64.92,3.4,1.7,5.25,2.32,15.4,5.16,31.86-2.49,36.75-17.1,4.89-14.6-3.63-30.63-19.03-35.79Z"/>
    </g>
    <g>
      <path class="cls-3" d="M209.1,142.45c-5.77-8.69-17.61-19.25-30.08-18.77-21.83.85-37.61,24.08-55.21,44.79-5.08,5.97-12.99,9.65-20.99,9.17-8.11-.49-16.67-8.18-17.32-17.2-.74-10.32,9.11-21.21,22.96-21.27-1.4-.47-3.37-.99-5.77-1.23-1.23-.12-5.88-.54-11.51,1.34-4.13,1.38-6.84,3.26-9.3,4.96-4.55,3.16-7.5,6.42-9.19,8.31-1.71,1.92-3.04,3.64-3.98,4.96.09,3.71.79,11.15,5.41,18.81,5.87,9.72,15.83,16.34,25.74,17.73,12.35,1.73,26.05-1.84,35.5-12.9,15.77-18.45,31.58-41.05,45.28-40.01,8.32.63,16.99,8.74,17.17,17.19.19,8.47-8.22,17.78-20.9,20.04,1.05.47,2.67.7,4.58,1.04,4.51.79,8.14-.26,10.62-1,3.79-1.14,6.37-2.72,8.32-3.93,4.5-2.8,7.39-5.77,9.87-8.35,2.37-2.47,3.9-4.44,5.1-6.04-.59-4.09-1.85-10.94-6.29-17.63Z"/>
      <path class="cls-3" d="M135.85,136.58c-6.27-7.82-16.72-13.45-25.99-14.72-23.66-3.24-41,18.08-41.16,35.66,10.16-13.64,23.9-20.84,35.46-19.27,4.85.66,11.61,3.9,19.18,11.99,8.77,9.38,12.58,13.6,18.82,21.05,7.53,9,20.57,25.43,39.79,24.31,16.15-.94,26.32-15.04,26.91-15.9,5.52-8,6.37-16.12,6.53-19.83-2.18,3.63-8.82,10.41-17.08,15.68-3.51,1.66-9.92,4.7-18.18,3.47-11.18-1.67-17.62-9.96-19.15-12.03"/>
    </g>
  </g>
  <g>
    <text class="cls-2" transform="translate(7.89 354.33)"><tspan x="0" y="0">Neu</tspan><tspan class="cls-1" x="84.89" y="0">r</tspan><tspan x="100.39" y="0">o</tspan><tspan class="cls-4" x="129.09" y="0">F</tspan><tspan x="154.92" y="0">riends</tspan></text>
    <circle class="cls-3" cx="300.75" cy="319.3" r="5.18"/>
  </g>
</svg>