<?xml version="1.0" encoding="utf-8"?>
<!-- Generator: Adobe Illustrator 28.1.0, SVG Export Plug-In . SVG Version: 6.00 Build 0)  -->
<svg version="1.1" id="Layer_6" xmlns="http://www.w3.org/2000/svg" xmlns:xlink="http://www.w3.org/1999/xlink" x="0px" y="0px"
	 viewBox="0 0 306 366.7" style="enable-background:new 0 0 306 366.7;" xml:space="preserve">
<style type="text/css">
	.st0{fill:#8FBADE;}
	.st1{enable-background:new    ;}
</style>
<g>
	<g>
		<path class="st0" d="M142.8,30c0.5-12.3-7.6-24.1-20.4-28.4C107-3.5,90.5,4.1,85.6,18.7c-2.5,7.4-1.5,15.3,2.1,21.8
			c-23.3,13.3-40.1,37-43.9,64.9c4.2-6.2,28.9-40.8,76.5-48.9c48-8.2,83,16.9,89,21.3C196,51.5,170.8,34,142.8,30z"/>
		<path class="st0" d="M58.5,232.6c-32.3-36.5-29.4-79.5-28.8-86.8c-13,21.3-16.1,46.6-9.8,69.6c-8.5,2.5-15.6,8.8-18.6,17.5
			c-4.9,14.6,3.6,30.6,19,35.8c11.4,3.8,23.3,0.6,30.7-7.1c25.1,19.1,59.4,23.5,89.3,10.2C133,271.5,90.5,268.8,58.5,232.6
			L58.5,232.6z"/>
		<path class="st0" d="M285.6,169.5c-3.6-1.2-7.4-1.7-10.9-1.6c-2.4-27.3-17.5-52.8-42-67.8c3.9,6.3,25.8,42.8,14.2,89.7
			c-11.8,47.3-48.8,69.3-55.2,73c29.8-1.6,56.2-18.1,71-42.7c1.6,0.9,3.4,1.7,5.2,2.3c15.4,5.2,31.9-2.5,36.8-17.1
			C309.6,190.7,301,174.7,285.6,169.5z"/>
	</g>
	<g>
		<path class="st0" d="M209.1,142.4c-5.8-8.7-17.6-19.2-30.1-18.8c-21.8,0.8-37.6,24.1-55.2,44.8c-5.1,6-13,9.6-21,9.2
			c-8.1-0.5-16.7-8.2-17.3-17.2c-0.7-10.3,9.1-21.2,23-21.3c-1.4-0.5-3.4-1-5.8-1.2c-1.2-0.1-5.9-0.5-11.5,1.3
			c-4.1,1.4-6.8,3.3-9.3,5c-4.6,3.2-7.5,6.4-9.2,8.3c-1.7,1.9-3,3.6-4,5c0.1,3.7,0.8,11.1,5.4,18.8C80,186,89.9,192.6,99.8,194
			c12.3,1.7,26-1.8,35.5-12.9c15.8-18.4,31.6-41.1,45.3-40c8.3,0.6,17,8.7,17.2,17.2s-8.2,17.8-20.9,20c1.1,0.5,2.7,0.7,4.6,1
			c4.5,0.8,8.1-0.3,10.6-1c3.8-1.1,6.4-2.7,8.3-3.9c4.5-2.8,7.4-5.8,9.9-8.4c2.4-2.5,3.9-4.4,5.1-6
			C214.8,156,213.5,149.2,209.1,142.4L209.1,142.4z"/>
		<path class="st0" d="M135.9,136.6c-6.3-7.8-16.7-13.4-26-14.7c-23.7-3.2-41,18.1-41.2,35.7c10.2-13.6,23.9-20.8,35.5-19.3
			c4.8,0.7,11.6,3.9,19.2,12c8.8,9.4,12.6,13.6,18.8,21.1c7.5,9,20.6,25.4,39.8,24.3c16.1-0.9,26.3-15,26.9-15.9
			c5.5-8,6.4-16.1,6.5-19.8c-2.2,3.6-8.8,10.4-17.1,15.7c-3.5,1.7-9.9,4.7-18.2,3.5c-11.2-1.7-17.6-10-19.1-12"/>
	</g>
</g>
<g class="st1">
	<path class="st0" d="M31.1,354.3L16,330.6v23.8H9.1V319h7.8L31,341.7V319h6.9v35.4H31.1z"/>
	<path class="st0" d="M47.1,343c0.2,3.9,2.4,6.5,5.9,6.5c2.2,0,4.2-1.1,4.7-2.9h7.1c-1.6,5.4-5.9,8.4-11.5,8.4
		c-8.7,0-13.1-4.8-13.1-14.3c0-8.1,4.6-13.3,12.7-13.3c8,0,12.3,5.2,12.3,15.6H47.1z M58,338.7c-0.1-3.9-2.7-5.8-5.4-5.8
		c-2.8,0-5.1,2.1-5.3,5.8H58z"/>
	<path class="st0" d="M84.6,354.3v-3.7c-1.8,3-4.5,4.4-8.1,4.4c-5.2,0-8.9-3.9-8.9-9.6v-17.3h6.9v16.2c0,3.3,1.5,4.9,4.4,4.9
		c3.5,0,5.4-2.5,5.4-6v-15.1h6.9v26.2H84.6z"/>
</g>
<g class="st1">
	<path class="st0" d="M94.2,354.3v-26.2h6.5v3.1c2.3-3.5,5-3.8,7.8-3.8h0.9v7.1c-0.6-0.1-1.3-0.2-1.9-0.2c-4.3,0-6.3,2.1-6.3,6.3
		v13.6H94.2z"/>
</g>
<g class="st1">
	<path class="st0" d="M109.1,341.2c0-8.3,5.2-13.8,13.5-13.8c8.2,0,13.3,5.4,13.3,13.8c0,8.3-5.2,13.8-13.3,13.8
		C114.1,355,109.1,349.4,109.1,341.2z M128.9,341.2c0-5.3-2.1-7.9-6.3-7.9s-6.3,2.6-6.3,7.9s2.1,8,6.3,8S128.9,346.6,128.9,341.2z"
		/>
</g>
<g class="st1">
	<path class="st0" d="M145.6,339.4v14.9h-7.4V319h25.2v6.2h-17.8v8h15.5v6.2H145.6z"/>
</g>
<g class="st1">
	<path class="st0" d="M164.2,354.3v-26.2h6.5v3.1c2.3-3.5,5-3.8,7.8-3.8h0.9v7.1c-0.6-0.1-1.3-0.2-1.9-0.2c-4.3,0-6.3,2.1-6.3,6.3
		v13.6H164.2z"/>
	<path class="st0" d="M181.5,325v-6.4h6.9v6.4H181.5z M181.5,354.3v-26.2h6.9v26.2H181.5z"/>
	<path class="st0" d="M197.9,343c0.2,3.9,2.4,6.5,5.9,6.5c2.2,0,4.2-1.1,4.7-2.9h7.1c-1.6,5.4-5.9,8.4-11.5,8.4
		c-8.7,0-13.1-4.8-13.1-14.3c0-8.1,4.6-13.3,12.7-13.3s12.3,5.2,12.3,15.6H197.9z M208.8,338.7c-0.1-3.9-2.7-5.8-5.4-5.8
		c-2.8,0-5.1,2.1-5.3,5.8H208.8z"/>
	<path class="st0" d="M235.1,354.3v-15.9c0-4-1.2-5.2-4.5-5.2c-3.6,0-5.4,2-5.4,6v15h-6.9v-26.2h6.6v3.8c1.6-2.9,4.3-4.5,8.5-4.5
		c5,0,8.7,3,8.7,8.7v18.2H235.1z"/>
	<path class="st0" d="M263.3,354.3l-0.1-3.2c-1.7,2.7-4.1,3.9-7.3,3.9c-6.6,0-11.3-5.2-11.3-14.1c0-7.9,4-13.5,10.8-13.5
		c3.2,0,5.8,1.3,7.8,4.1v-13h6.8v35.8H263.3z M263.4,341.9c0-5.7-2-8.5-5.8-8.5c-4,0-6,2.7-6,8.1c0,4.7,2.5,7.9,5.9,7.9
		C260.8,349.4,263.4,346.3,263.4,341.9z"/>
	<path class="st0" d="M288.7,336.1c-0.4-2.6-1.8-3.5-4.9-3.5c-2.6,0-4.1,0.6-4.1,2.2s1.4,2.2,4.3,3c3,0.9,5.8,1.4,7.8,2.2
		c2.8,1.1,4.3,2.9,4.3,6.3c0,5.4-4,8.7-11.4,8.7c-8,0-12.5-3.8-12.6-9.1h7.1c0,2.4,2.1,3.9,5.4,3.9c2.5,0,4.6-0.7,4.6-2.7
		c0-1.9-2-2.5-4.2-3c-4.4-1.1-6.9-1.8-8.7-3c-2.5-1.5-3.3-3.6-3.3-5.9c0-4.4,3-7.8,11-7.8c7.6,0,11,3,11.3,8.6H288.7z"/>
</g>
<circle class="st0" cx="300.8" cy="319.3" r="5.2"/>
</svg>
