<?xml version="1.0" encoding="UTF-8"?>
<svg id="Capa_1" data-name="Capa 1" xmlns="http://www.w3.org/2000/svg" viewBox="0 0 645.9 800">
  <defs>
    <style>
      .cls-1 {
        fill: #fff;
        stroke-width: 0px;
      }
    </style>
  </defs>
  <path class="cls-1" d="M171.67,561.76c-11.26-6.51-25.24-12.21-40.03-18.24-9.04-3.68-18.38-7.5-27.67-11.73L3,715.5c-7.17,13.06-1.05,21.6,13.62,18.99l46.28-8.24c14.67-2.61,31.19,6.57,36.71,20.41l16.97,42.53c5.52,13.84,15.91,14.48,23.08,1.42l98.81-179.8c-11.8-7.91-22.67-16.47-32.71-24.39-12.1-9.55-23.53-18.55-34.09-24.67Z"/>
  <path class="cls-1" d="M642.89,715.5l-100.97-183.72c-9.29,4.23-18.63,8.04-27.67,11.73-14.79,6.03-28.76,11.72-40.03,18.24-10.56,6.11-21.99,15.13-34.09,24.67-10.04,7.92-20.91,16.48-32.71,24.39l98.81,179.8c7.17,13.06,17.56,12.42,23.08-1.42l16.97-42.53c5.52-13.84,22.04-23.02,36.71-20.41l46.28,8.24c14.67,2.61,20.79-5.93,13.62-18.99Z"/>
  <path class="cls-1" d="M192.02,526.58c41.31,23.9,79.77,72.95,130.92,72.95s89.62-49.05,130.93-72.95c42.62-24.66,104.06-34.28,128.72-76.9,23.9-41.31,2.2-98.77,2.2-149.92s21.69-108.61-2.2-149.92c-24.66-42.61-86.1-52.24-128.72-76.9C412.56,49.05,374.1,0,322.95,0s-89.62,49.05-130.92,72.95c-42.62,24.65-104.06,34.28-128.71,76.9-23.9,41.31-2.2,98.76-2.2,149.92s-21.7,108.61,2.2,149.92c24.66,42.61,86.1,52.24,128.72,76.9ZM322.95,84.08c118.93,0,215.69,96.76,215.69,215.68s-96.76,215.69-215.69,215.69-215.68-96.76-215.68-215.69c0-118.93,96.76-215.68,215.68-215.68Z"/>
  <path class="cls-1" d="M322.95,474.82c96.53,0,175.06-78.53,175.06-175.06s-78.53-175.05-175.06-175.05-175.05,78.53-175.05,175.05c0,96.53,78.53,175.06,175.05,175.06Z"/>
</svg>