<?xml version="1.0" encoding="utf-8"?>
<!-- Generator: Adobe Illustrator 28.1.0, SVG Export Plug-In . SVG Version: 6.00 Build 0)  -->
<svg version="1.1" id="Layer_1" xmlns="http://www.w3.org/2000/svg" xmlns:xlink="http://www.w3.org/1999/xlink" x="0px" y="0px"
	 viewBox="0 0 948 1023.4" style="enable-background:new 0 0 948 1023.4;" xml:space="preserve">
<style type="text/css">
	.st0{fill:#FFFFFF;}
</style>
<g>
	<path class="st0" d="M14.1,507c1.1-2.9,1.2-5.9,1.4-8.9c0.6-9.4,1.1-18.9,1.9-28.3c1.1-12.1,2.9-24.2,5.1-36.2
		c5.2-28.9,13-57,23.4-84.4c18.2-48,43.3-92,74.8-132.4c42.8-54.9,94.3-99.9,154.7-134.6c39.3-22.6,81.2-39.1,125.2-50.1
		c16.7-4.2,33.5-7.5,50.5-10c13.8-2,27.6-3.4,41.5-4.3c18.5-1.2,37-1.1,55.5-0.5c9.2,0.3,18.3,1.3,27.5,2.1
		c9.9,0.8,19.8,2.3,29.6,3.9c21.8,3.5,43.2,8.6,64.3,15.2C711.1,51.5,750,70,786,94.6c9.9,6.7,19.4,13.9,28.6,21.5
		c0.8,0.7,1.6,1.5,3,2.7c-2.2-0.3-3.4-1.2-4.6-1.8c-17.2-8.8-34.8-16.7-52.8-23.5c-26.6-10-53.8-17.7-81.7-23
		c-14.3-2.7-28.7-4.8-43.2-6.3c-24.3-2.6-48.7-3-73.1-2c-13.5,0.6-27,1.8-40.4,3.6c-61.8,8-120.2,26.6-174.8,56.9
		c-94.9,52.6-164.4,128.8-208.2,228.1c-12.8,29-21.9,59.2-27.8,90.4c-2.4,12.8-4,25.6-5.2,38.6c-1.3,15.1-1.7,30.1-1.3,45.2
		c0.3,12.5,1.3,24.9,2.9,37.3c3.6,29.2,10.3,57.5,20.3,85.2c13.3,36.9,31.9,71,54.9,102.7c23.2,32,50.2,60.6,80.3,86.3
		c16.5,14.1,33.7,27.2,51.8,39.2c27.7,18.4,57.4,32.6,88.6,44c25.5,9.4,51.7,16.3,78.5,21.2c14.6,2.6,29.3,4.6,44.1,5.9
		c17.4,1.5,34.8,2.3,52.3,2c14.8-0.3,29.6-1.2,44.4-2.8c83.7-8.8,160.3-37.1,230.4-83.3c2.1-1.4,4.1-2.8,6.2-4.2
		c0.5-0.3,1.1-0.6,2.2-1.2c-0.6,1.6-1.4,2.3-2.1,3c-10.4,11.2-21.4,21.7-33,31.6c-43,36.7-91.4,64-144.5,83.1
		c-25.5,9.1-51.6,15.9-78.2,20.7c-14.7,2.6-29.5,4.6-44.5,5.9c-9.3,0.8-18.6,1.2-27.9,1.8c-2.1,0.1-4.1,0.5-6.2,0.8
		c-6.6,0-13.1,0-19.7,0c-2.2-0.3-4.4-0.6-6.6-0.8c-11.9-0.9-23.8-1.5-35.7-2.6c-13.7-1.3-27.3-3.4-40.9-6
		c-24.4-4.6-48.3-11.1-71.7-19.2c-16.5-5.7-32.7-12.1-48.3-19.9c-69.6-34.6-129.2-81.9-178.6-141.9c-30.5-37-55.2-77.5-73.8-121.7
		C30.6,646.6,19.4,599.2,16.1,550c-0.3-5.2-0.6-10.5-0.9-15.7c-0.2-2.7-0.3-5.5-1.4-8.1C14.1,519.6,14.1,513.3,14.1,507z"/>
	<path class="st0" d="M928.5,496.7c-0.2,1.7-0.5,3.4-0.6,5c-0.1,2.9-0.2,5.8-0.2,8.7c0,7.6-0.9,15.2-1.8,22.7
		c-2.1,17.1-5.4,33.9-10,50.5c-11.5,42.2-29,81.8-53.5,118.1c-25.6,38-57.9,69.4-96,94.9c-33.7,22.6-70.3,39.1-109.2,50.4
		c-17,5-34.3,8.8-51.8,11.6c-13.1,2.1-26.3,3.6-39.5,4.2c-1,0-2.1,0-3.1,0c-0.2,0-0.4-0.2-1.1-0.5c2.7-0.7,5.1-1.2,7.5-1.8
		c60.9-14.9,115.8-41.8,163.6-82.5c48.8-41.5,82.9-92.9,102.8-153.8c6.3-19.1,11-38.6,14-58.5c3-20,4.5-40.2,3.9-60.4
		c-2.1-67.5-22.8-128.8-62.1-183.6C746.4,258.9,686.9,216,613.1,193c-15.9-5-32.2-8.5-48.7-11c-18-2.6-36-3.9-54.2-3.4
		c-43.9,1.1-86,10.7-126.4,28c-36.1,15.4-69.2,35.7-99.2,61.1c-2.2,1.8-4.3,3.7-6.7,5.8c0.1-1.6,1-2.2,1.6-3c6.3-7,12.4-14.2,19-21
		c29.7-30.6,63.2-56.4,100.6-77.1c28.7-15.9,59-27.9,91-35.5c12.8-3,25.7-5.3,38.7-6.9c18.6-2.3,37.2-2.8,55.8-1.9
		c42.9,2.1,84,11.9,123.3,29.3c40.6,18,76.8,42.6,108.6,73.6c35.6,34.7,63.4,74.7,83.2,120.3c11.1,25.5,19,51.9,23.8,79.3
		c1.8,10.1,3.1,20.2,3.9,30.4c0.4,4.8,0.2,9.7,0.4,14.6c0.1,2.2,0.4,4.4,0.6,6.6C928.5,487.3,928.5,492,928.5,496.7z"/>
</g>
</svg>
