<?xml version="1.0" encoding="utf-8"?>
<!-- Generator: Adobe Illustrator 28.1.0, SVG Export Plug-In . SVG Version: 6.00 Build 0)  -->
<svg version="1.1" id="Layer_1" xmlns="http://www.w3.org/2000/svg" xmlns:xlink="http://www.w3.org/1999/xlink" x="0px" y="0px"
	 viewBox="0 0 856.8 202.9" style="enable-background:new 0 0 856.8 202.9;" xml:space="preserve">
<style type="text/css">
	.st0{fill:none;}
	.st1{fill:#E4A1EB;}
	.st2{fill:#D38FD0;}
	.st3{fill:#BED5EB;}
	.st4{fill:#9CB0D3;}
</style>
<g>
	<path class="st0" d="M674.7,87.6l-2.8-9.2c-2.8,0.9-5.7,1.8-8.5,2.7l0,0l0,0c-3,1-6,2-9,3l3.1,9.1c3-1,5.9-2,8.9-2.9l2.1,6.6l0,0
		l-2.1-6.6C669.2,89.3,672,88.4,674.7,87.6z"/>
	<path class="st0" d="M494.3,140.4L494.3,140.4c-3,0.8-6,1.5-9,2.2l2.2,9.4c3.1-0.7,6.2-1.5,9.2-2.2l0,0c2.9-0.7,5.8-1.5,8.6-2.3
		l-2.6-9.3C499.9,138.9,497.1,139.7,494.3,140.4L494.3,140.4L494.3,140.4z"/>
	<path class="st0" d="M384.8,159.1l1.3-9.6c-2.9-0.4-5.7-0.8-8.5-1.3l0,0c-3-0.5-6-1.1-9-1.8l-2.1,9.4c3.1,0.7,6.3,1.4,9.4,1.9
		l-1.2,6.9l0,0l1.2-6.9C378.8,158.3,381.8,158.7,384.8,159.1L384.8,159.1z"/>
	<path class="st0" d="M135.2,109.3l2.6,9.3c2.9-0.8,5.9-1.6,8.9-2.3l0,0c2.8-0.7,5.6-1.2,8.4-1.8l-1.9-9.5c-2.9,0.6-5.9,1.2-8.8,1.9
		C141.4,107.6,138.3,108.4,135.2,109.3L135.2,109.3z"/>
	<path class="st0" d="M573.6,124.5c2.9-1.1,5.9-2.2,8.8-3.4l0,0l8.2-3.2l-3.5-9l-8.2,3.2l0,0l0,0c-2.9,1.1-5.8,2.2-8.8,3.3
		L573.6,124.5z"/>
	<path class="st0" d="M626.1,94.1l3.4,9c2.9-1.1,5.8-2.2,8.8-3.2c2.8-1,5.5-2,8.3-2.9l-3.2-9.1c-2.8,1-5.6,2-8.3,3
		C632,91.9,629.1,93,626.1,94.1L626.1,94.1z"/>
	<path class="st0" d="M782.4,61L782.4,61c-3.2-0.1-6.4-0.1-9.6-0.1l0.1,9.6c3.1,0,6.1,0,9.2,0.1l0,0c2.9,0.1,5.7,0.2,8.6,0.5
		l0.7-9.6C788.4,61.2,785.4,61,782.4,61L782.4,61L782.4,61z"/>
	<path class="st0" d="M683.2,75l2.6,9.3c3-0.8,6-1.7,9-2.5l0,0c2.8-0.7,5.6-1.4,8.5-2.1l-2.3-9.4c-2.9,0.7-5.8,1.4-8.7,2.2
		C689.3,73.3,686.3,74.1,683.2,75L683.2,75z"/>
	<path class="st0" d="M293.8,129l3.4,1.4l1.2,0.5l3.7-8.9l-1.2-0.5l-3.5-1.4l-3.5-1.4c-0.6-0.2-1.2-0.5-1.8-0.7l-1.8-0.7
		c-1.2-0.4-2.4-0.9-3.5-1.4l-1.8-0.7l-3.3,9l1.8,0.7c1.1,0.4,2.3,0.9,3.4,1.3l1.7,0.7c0.6,0.2,1.1,0.5,1.7,0.7l-2.6,6.5l0,0l2.6-6.5
		L293.8,129L293.8,129z"/>
	<path class="st0" d="M598.1,104.7l3.5,9c2.9-1.1,5.8-2.3,8.8-3.4c2.7-1.1,5.5-2.1,8.2-3.1l-3.4-9c-2.8,1.1-5.5,2.1-8.3,3.2
		C604,102.5,601,103.6,598.1,104.7L598.1,104.7z"/>
	<path class="st0" d="M195.4,100.3l0.2,9.6c3.1-0.1,6.1-0.1,9.2-0.1c2.9,0,5.8,0.1,8.6,0.3l0.5-9.6c-3-0.2-6-0.2-9-0.3
		C201.7,100.2,198.5,100.3,195.4,100.3L195.4,100.3z"/>
	<path class="st0" d="M406.7,151.3c-3.1-0.1-6.1-0.3-9.2-0.5l-0.8,9.6c3.2,0.2,6.4,0.4,9.6,0.6c3,0.1,6,0.2,9,0.2v-9.6
		C412.5,151.5,409.6,151.4,406.7,151.3L406.7,151.3L406.7,151.3z"/>
	<polygon class="st0" points="204.7,116.9 204.7,116.9 204.8,109.9 	"/>
	<polygon class="st0" points="293.9,118.6 293.9,118.6 296,113.5 	"/>
	<path class="st0" d="M242.5,113.5l1.7-9.5c-2.9-0.5-5.9-1-8.9-1.4c-3.2-0.4-6.3-0.8-9.5-1.1l-1,9.6c3.1,0.3,6.1,0.7,9.1,1.1l-1,6.9
		l0,0l1-6.9C236.8,112.5,239.6,113,242.5,113.5L242.5,113.5z"/>
	<path class="st0" d="M349.2,141L349.2,141L349.2,141c-2.9-1-5.8-2-8.7-3.1l-3.4,9c3,1.1,6,2.2,9,3.2c2.4,0.8,4.8,1.6,7.3,2.3
		l1.3,0.4l2.7-9.2l-1.3-0.4C353.9,142.5,351.5,141.7,349.2,141L349.2,141z"/>
	<path class="st0" d="M752,61.8c-3.2,0.3-6.3,0.6-9.5,1l1.1,9.6c3.1-0.4,6.1-0.7,9.2-0.9l0,0c2.9-0.2,5.8-0.4,8.6-0.6l-0.5-9.6
		C758,61.3,755,61.5,752,61.8L752,61.8L752,61.8z"/>
	<path class="st0" d="M436.1,150.6L436.1,150.6c-3.1,0.2-6.1,0.4-9.2,0.6l0.5,9.6c3.2-0.1,6.4-0.4,9.6-0.6l0,0c3-0.2,6-0.6,8.9-0.9
		l-1.1-9.6C441.9,150.1,439,150.4,436.1,150.6L436.1,150.6L436.1,150.6z"/>
	<path class="st0" d="M265.2,108.8L265.2,108.8L265.2,108.8c-3.1-0.8-6.2-1.6-9.3-2.3l-2.2,9.4c3,0.7,5.9,1.4,8.9,2.2l0,0
		c2.4,0.6,4.7,1.3,7,2.1c0.4,0.1,0.8,0.3,1.2,0.4l2.9-9.2c-0.4-0.1-0.9-0.3-1.3-0.4C270.1,110.2,267.6,109.4,265.2,108.8
		L265.2,108.8z"/>
	<path class="st1" d="M57.4,138.2l4,5.7c2.5-1.7,5-3.4,7.5-5l-3.8-5.9C62.5,134.7,59.9,136.4,57.4,138.2L57.4,138.2z"/>
	<path class="st1" d="M87.4,128.1l-3.2-6.2c-2.9,1.5-5.8,3.1-8.6,4.8l3.5,6.1C81.8,131.1,84.6,129.6,87.4,128.1L87.4,128.1z"/>
	<path class="st1" d="M66.9,151.8l4,5.7c2.3-1.6,4.6-3.1,6.9-4.6l-3.8-5.9C71.7,148.6,69.3,150.1,66.9,151.8L66.9,151.8z"/>
	<path class="st2" d="M79.1,132.7l-3.5-6.1l-3.4-5.8c-0.6-1.1-2-1.4-3.2-0.7l0,0c-2.3,1.4-4.6,2.8-6.8,4.2c-0.6,0.3-0.9,0.9-1.1,1.4
		c-0.1,0.6-0.1,1.2,0.3,1.7l3.7,5.7l3.8,5.9l5.2,8.1l3.8,5.9l3.2,4.9c0.3,0.5,0.8,0.9,1.3,1c0.5,0.1,1.1,0.1,1.5-0.2
		c1.9-1.2,3.8-2.4,5.7-3.5c0.9-0.6,1.2-1.9,0.6-2.9l-2.9-5.1l-3.5-6.1L79.1,132.7L79.1,132.7z"/>
	<path class="st1" d="M115.3,115.7l-2.4-6.5c-3.1,1.1-6.1,2.3-9.2,3.6l2.7,6.5C109.4,118,112.3,116.8,115.3,115.7L115.3,115.7z"/>
	<path class="st1" d="M84.2,121.9l3.2,6.2c2.7-1.4,5.3-2.7,8.1-4l-3-6.3C89.7,119.1,87,120.4,84.2,121.9L84.2,121.9z"/>
	<path class="st1" d="M91.9,136.6L91.9,136.6c-2.7,1.4-5.4,2.9-8,4.4l3.5,6.1c2.6-1.5,5.2-2.9,7.8-4.3l0,0c2.5-1.3,5-2.5,7.5-3.7
		l-3-6.3C97,134,94.5,135.3,91.9,136.6L91.9,136.6z"/>
	<path class="st2" d="M106.4,119.2l-2.7-6.5l-2.6-6.2c-0.5-1.1-1.8-1.6-3-1.1c-1.2,0.5-2.4,1.1-3.7,1.6l-1.8,0.8
		c-0.6,0.3-1.2,0.6-1.8,0.8c-1.2,0.6-1.7,1.9-1.2,3l2.9,6.1l3,6.3l4.1,8.7l3,6.3l2.5,5.3c0.5,1.1,1.8,1.6,2.8,1.1
		c0.5-0.2,1-0.5,1.5-0.7l1.5-0.7c1-0.4,2.1-0.9,3.1-1.4c1-0.4,1.4-1.7,1-2.8l-2.2-5.4l-2.7-6.4L106.4,119.2L106.4,119.2z"/>
	<path class="st1" d="M112.9,109.1l2.4,6.5c2.8-1,5.6-2,8.5-2.9l-2.2-6.6C118.7,107.1,115.8,108.1,112.9,109.1L112.9,109.1z"/>
	<path class="st1" d="M144.5,106.9c2.9-0.7,5.8-1.3,8.8-1.9l-1.4-6.8c-3,0.6-6,1.2-9,1.9l0,0c-3.2,0.8-6.4,1.6-9.5,2.4l1.9,6.7
		C138.3,108.4,141.4,107.6,144.5,106.9L144.5,106.9z"/>
	<path class="st1" d="M118.7,124.7c-2.9,1.1-5.7,2.2-8.5,3.4l2.7,6.4c2.7-1.1,5.5-2.2,8.3-3.3c2.6-1,5.3-1.9,7.9-2.8l-2.2-6.6
		C124.1,122.8,121.4,123.7,118.7,124.7L118.7,124.7z"/>
	<path class="st2" d="M135.2,109.3l-1.9-6.7l-1.8-6.5c-0.3-1.2-1.6-1.9-2.9-1.5l-1.9,0.6c-0.6,0.2-1.3,0.4-1.9,0.6l-1.9,0.6
		l-1.9,0.6c-0.6,0.2-1.1,0.6-1.4,1.1s-0.4,1.1-0.2,1.7l2.1,6.4l2.2,6.6l3,9.2l2.2,6.6l1.8,5.6c0.2,0.6,0.6,1,1,1.3
		c0.5,0.3,1,0.4,1.5,0.2l1.6-0.5l1.6-0.5c0.5-0.2,1.1-0.3,1.6-0.5l1.6-0.5c1.1-0.3,1.6-1.5,1.3-2.7l-1.6-5.7l-1.9-6.7L135.2,109.3
		L135.2,109.3z"/>
	<path class="st1" d="M174.5,101.7l-0.8-6.9c-3.3,0.4-6.5,0.8-9.8,1.3l1,6.9C168.2,102.5,171.3,102.1,174.5,101.7L174.5,101.7z"/>
	<path class="st1" d="M146.7,116.3L146.7,116.3c-3,0.7-5.9,1.5-8.9,2.3l1.9,6.7c2.9-0.8,5.7-1.6,8.6-2.2c2.7-0.6,5.5-1.2,8.2-1.8
		l-1.4-6.8C152.3,115,149.5,115.6,146.7,116.3L146.7,116.3z"/>
	<path class="st2" d="M165,103l-1-6.9l-1-6.7c-0.2-1.2-1.4-2-2.6-1.8l0,0c-2.6,0.4-5.2,0.9-7.9,1.4c-0.6,0.1-1.2,0.5-1.5,0.9
		c-0.3,0.5-0.5,1.1-0.4,1.7l1.3,6.6l1.4,6.8l1.9,9.5l1.4,6.8l1.1,5.8c0.1,0.6,0.4,1.1,0.9,1.4c0.4,0.3,1,0.5,1.5,0.4
		c2.2-0.4,4.4-0.8,6.7-1.2c1.1-0.2,1.8-1.3,1.6-2.5l-0.9-5.8l-1-6.9L165,103L165,103z"/>
	<path class="st1" d="M173.7,94.8l0.8,6.9c3-0.3,6-0.6,8.9-0.8l-0.5-7C179.9,94.2,176.8,94.5,173.7,94.8L173.7,94.8z"/>
	<path class="st1" d="M204.9,100.3c3,0,6,0.1,9,0.3l0.4-7c-3.1-0.2-6.2-0.3-9.2-0.3c-3.3,0-6.6,0-9.8,0.1l0.2,7
		C198.5,100.3,201.7,100.2,204.9,100.3L204.9,100.3z"/>
	<path class="st1" d="M175.5,111.3c-3.1,0.3-6.1,0.8-9.1,1.2l1,6.9c2.9-0.4,5.9-0.8,8.9-1.2c2.8-0.3,5.6-0.5,8.4-0.8l-0.5-7
		C181.3,110.7,178.4,111,175.5,111.3L175.5,111.3z"/>
	<path class="st1" d="M204.8,109.9c-3.1,0-6.1,0-9.2,0.1l0.2,7c3-0.1,5.9-0.1,8.9-0.1l0,0L204.8,109.9L204.8,109.9z"/>
	<path class="st2" d="M195.4,100.3l-0.2-7l-0.2-6.7c0-1.2-1.1-2.2-2.4-2.2c-1.3,0.1-2.7,0.1-4,0.2l-2,0.1c-0.7,0-1.3,0.1-2,0.1
		c-1.3,0.1-2.3,1.2-2.2,2.4l0.5,6.7l0.5,7l0.7,9.6l0.5,7l0.4,5.8c0.1,1.2,1.1,2.1,2.1,2.1c0.6,0,1.1-0.1,1.7-0.1l1.7-0.1
		c1.1-0.1,2.2-0.1,3.4-0.1c1.1,0,2-1,1.9-2.3l-0.1-5.9l-0.2-7L195.4,100.3L195.4,100.3z"/>
	<path class="st1" d="M235.3,102.6c3,0.4,5.9,0.9,8.9,1.4l1.2-6.9c-3-0.5-6.1-1-9.1-1.5c-3.2-0.4-6.5-0.8-9.8-1.2l-0.7,6.9
		C229,101.8,232.1,102.1,235.3,102.6L235.3,102.6z"/>
	<path class="st1" d="M234,112.1c-3-0.4-6.1-0.8-9.1-1.1l-0.7,7c2.9,0.3,5.9,0.6,8.9,1l0,0L234,112.1L234,112.1z"/>
	<path class="st1" d="M204.8,109.9l-0.1,7c2.8,0,5.6,0.1,8.4,0.3l0.4-7C210.5,110.1,207.7,110,204.8,109.9L204.8,109.9z"/>
	<path class="st2" d="M225.8,101.5l0.7-6.9l0.7-6.7c0.1-0.6-0.1-1.2-0.5-1.6c-0.4-0.4-0.9-0.7-1.6-0.8l0,0l-2-0.2
		c-0.7-0.1-1.3-0.1-2-0.2l-2-0.2l-2-0.1c-0.6,0-1.2,0.2-1.7,0.6c-0.4,0.4-0.7,0.9-0.8,1.5l-0.3,6.7l-0.4,7l-0.5,9.6l-0.4,7l-0.3,5.9
		c0,0.6,0.2,1.2,0.5,1.6s0.8,0.7,1.4,0.7l1.7,0.1l1.7,0.1c0.6,0,1.1,0.1,1.7,0.1l1.7,0.2c0.6,0.1,1.1-0.2,1.5-0.5
		c0.4-0.4,0.7-0.9,0.7-1.5l0.6-5.8l0.7-7L225.8,101.5L225.8,101.5z"/>
	<path class="st1" d="M265.2,108.8L265.2,108.8c2.5,0.7,4.9,1.4,7.3,2.2c0.4,0.1,0.9,0.3,1.3,0.4l2.1-6.7c-0.5-0.2-0.9-0.3-1.3-0.4
		c-2.5-0.8-5-1.5-7.5-2.2l0,0c-3.2-0.9-6.4-1.7-9.6-2.4l-1.6,6.8C259,107.1,262.1,107.9,265.2,108.8L265.2,108.8z"/>
	<path class="st1" d="M234,112.1l-1,6.9c2.8,0.4,5.5,0.8,8.3,1.3l1.2-6.9C239.7,113,236.8,112.5,234,112.1L234,112.1z"/>
	<path class="st2" d="M255.9,106.4l1.6-6.8l1.5-6.6c0.3-1.2-0.5-2.4-1.8-2.7l0,0c-2.6-0.6-5.2-1.1-7.9-1.6c-0.6-0.1-1.3,0-1.8,0.3
		c-0.5,0.3-0.9,0.8-1,1.4l-1.2,6.6l-1.2,6.9l-1.7,9.5l-1.2,6.9l-1,5.8c-0.1,0.6,0,1.2,0.3,1.6s0.7,0.8,1.3,0.9
		c2.2,0.4,4.4,0.9,6.6,1.4c1.1,0.2,2.1-0.5,2.4-1.7l1.3-5.7l1.6-6.8L255.9,106.4L255.9,106.4z"/>
	<path class="st1" d="M286.9,115.9c1.2,0.4,2.4,0.9,3.5,1.4l1.8,0.7c0.6,0.2,1.2,0.5,1.8,0.7l0,0l2-5.1l-2,5.1l3.5,1.4l3.5,1.4
		l1.2,0.5l2.7-6.4l-1.3-0.5l-3.5-1.5l-3.6-1.4l0,0c-0.6-0.2-1.2-0.5-1.8-0.7l-1.8-0.7c-1.2-0.5-2.4-0.9-3.6-1.4l-1.9-0.7l-2.4,6.6
		L286.9,115.9L286.9,115.9z"/>
	<path class="st1" d="M269.6,120.1c-2.3-0.7-4.7-1.4-7-2.1l0,0c-3-0.8-5.9-1.6-8.9-2.2l-1.6,6.8c2.9,0.7,5.8,1.4,8.6,2.2l0,0
		c2.3,0.6,4.5,1.3,6.8,2c0.4,0.1,0.8,0.2,1.2,0.4l2.1-6.7C270.4,120.4,270,120.2,269.6,120.1L269.6,120.1z"/>
	<path class="st1" d="M288.6,126.9l-1.7-0.7c-1.1-0.4-2.3-0.9-3.4-1.3l-1.8-0.7l-2.4,6.6l1.7,0.6c1.1,0.4,2.2,0.9,3.4,1.3l1.7,0.6
		c0.6,0.2,1.1,0.4,1.7,0.7l2.6-6.5C289.8,127.3,289.2,127.1,288.6,126.9L288.6,126.9z"/>
	<polygon class="st1" points="287.8,134.1 287.8,134.1 287.8,134.1 	"/>
	<path class="st2" d="M285.1,115.2l2.4-6.6l2.3-6.3c0.4-1.1-0.2-2.4-1.4-2.9l0,0c-1.2-0.5-2.5-0.9-3.7-1.3l-1.9-0.7
		c-0.6-0.2-1.2-0.4-1.9-0.6c-1.2-0.4-2.6,0.2-2.9,1.4l-2,6.4l-2.1,6.7l-2.9,9.2l-2.1,6.7l-1.8,5.6c-0.4,1.2,0.2,2.4,1.2,2.7
		c0.5,0.2,1.1,0.4,1.6,0.5l1.6,0.6c1.1,0.4,2.1,0.7,3.2,1.1c1,0.4,2.2-0.2,2.7-1.4l2-5.5l2.4-6.6L285.1,115.2L285.1,115.2z"/>
	<polygon class="st1" points="314.7,127.3 318.2,128.8 321.6,130.3 324.3,123.8 320.9,122.4 317.5,120.9 315.7,120.2 313,126.6 	"/>
	<polygon class="st1" points="297.2,130.4 293.8,129 290.4,127.6 287.8,134.1 291.1,135.4 294.5,136.8 295.8,137.3 298.5,130.9 	"/>
	<path class="st2" d="M313,126.6l2.7-6.4l2.6-6.2c0.5-1.1,0-2.4-1.1-2.9l0,0l-3.4-1.5l-3.5-1.5c-0.6-0.2-1.2-0.2-1.7,0
		c-0.5,0.2-1,0.6-1.2,1.2l-2.6,6.2l-2.7,6.4l-3.7,8.9l-2.7,6.4l-2.3,5.4c-0.2,0.6-0.2,1.2,0,1.7c0.2,0.5,0.6,0.9,1.1,1.2l3.3,1.4
		l3.4,1.4c1.1,0.5,2.4-0.1,2.9-1.2l2.3-5.4l2.7-6.4L313,126.6L313,126.6z"/>
	<polygon class="st1" points="331.1,126.7 327.7,125.3 326,124.6 324.3,123.8 321.6,130.3 323.3,131 325,131.7 328.5,133.1 
		329.7,133.6 332.4,127.2 	"/>
	<path class="st1" d="M349.2,141L349.2,141L349.2,141c2.3,0.8,4.6,1.5,7,2.2l1.3,0.4l2-6.7l-1.2-0.4c-2.3-0.6-4.5-1.4-6.8-2.1l0,0
		l-0.4-0.1l-0.4-0.1l-0.8-0.3l-1.7-0.6l-1.7-0.6l-0.4-0.1l-0.4-0.2l-0.8-0.3l-1.7-0.6l-2.5,6.5C343.4,139,346.3,140,349.2,141
		L349.2,141z"/>
	<polygon class="st1" points="324.8,142.1 321.3,140.6 319.6,139.9 317.9,139.1 317.9,139.1 314.4,137.7 311,136.2 309.2,135.5 
		306.5,141.9 308.2,142.6 311.7,144.1 315.1,145.6 315.1,145.6 316.9,146.3 318.6,147 322.2,148.5 323.4,149 326.1,142.6 	"/>
	<path class="st2" d="M340.5,137.9l2.5-6.5l2.4-6.3c0.4-1.1-0.1-2.4-1.1-2.8l0,0l-3.2-1.3l-1.6-0.6l-1.6-0.7
		c-1.1-0.4-2.3,0.1-2.8,1.3l-2.5,6.2l-2.6,6.5l-3.6,8.9l-2.6,6.5l-2.2,5.4c-0.5,1.1,0.1,2.4,1.3,2.9l1.8,0.7l1.8,0.7l3.6,1.4
		c1.2,0.4,2.5-0.1,3-1.3l2.1-5.5l2.5-6.6L340.5,137.9L340.5,137.9z"/>
	<path class="st1" d="M377.5,148.3L377.5,148.3c2.8,0.5,5.7,0.9,8.5,1.3l0.9-6.9c-2.8-0.4-5.5-0.8-8.2-1.3c-2.9-0.5-5.8-1.1-8.7-1.8
		l-1.5,6.8C371.5,147.1,374.5,147.7,377.5,148.3L377.5,148.3z"/>
	<polygon class="st1" points="374.6,164.6 374.6,164.6 374.6,164.6 	"/>
	<path class="st1" d="M353.5,152.4c-2.5-0.7-4.9-1.5-7.3-2.3c-3-1-6-2.1-9-3.2l-2.5,6.6l1.9,0.7l0.9,0.3l0.5,0.2l0.5,0.2l1.9,0.6
		l1.9,0.6l0.9,0.3l0.5,0.2l0.5,0.1l0,0c2.5,0.8,5,1.6,7.5,2.4l1.4,0.4l2-6.7L353.5,152.4L353.5,152.4z"/>
	<path class="st1" d="M366.4,155.8l-1.5,6.8c3.2,0.7,6.5,1.4,9.8,2l1.2-6.9C372.7,157.2,369.6,156.5,366.4,155.8L366.4,155.8z"/>
	<path class="st2" d="M368.5,146.4l1.5-6.8l1.5-6.6c0.3-1.2-0.4-2.4-1.4-2.6l0,0l-0.4-0.1l-0.4-0.1l-0.8-0.2l-1.6-0.4l-0.4-0.1
		l-0.4-0.1l-0.8-0.2l-1.6-0.4c-0.1,0-0.3-0.1-0.4-0.1c-0.1,0-0.3,0-0.4,0c-0.3,0-0.5,0.1-0.7,0.3c-0.5,0.3-0.8,0.8-1,1.3l-1.9,6.4
		l-2,6.7l-2.7,9.2l-2,6.7l-1.6,5.6c-0.2,0.6-0.1,1.2,0.2,1.7c0.1,0.2,0.4,0.5,0.6,0.7c0.1,0.1,0.2,0.2,0.4,0.2
		c0.1,0.1,0.3,0.1,0.5,0.2l2,0.5l1,0.3l0.5,0.1l0.5,0.1l2,0.5l1,0.2l0.5,0.1l0.5,0.1c1.3,0.3,2.6-0.4,2.8-1.6l1.3-5.8l1.5-6.8
		L368.5,146.4L368.5,146.4z"/>
	<path class="st1" d="M406.7,151.3L406.7,151.3c2.9,0.1,5.8,0.1,8.7,0.1v-7c-2.8,0-5.6,0-8.4-0.1l0,0c-3-0.1-5.9-0.3-8.9-0.5l-0.5,7
		C400.6,151,403.6,151.2,406.7,151.3L406.7,151.3z"/>
	<path class="st1" d="M375.9,157.7l-1.2,6.9c3.1,0.6,6.1,1,9.2,1.4l0.9-6.9C381.8,158.7,378.8,158.3,375.9,157.7L375.9,157.7z"/>
	<path class="st2" d="M397.5,150.8l0.5-7l0.5-6.7c0.1-1.2-0.7-2.3-1.8-2.4l0,0c-0.5-0.1-1.1-0.1-1.7-0.1l-1.7-0.2
		c-0.5-0.1-1.1-0.1-1.7-0.2l-1.6-0.2c-0.5-0.1-1.1,0.1-1.5,0.5c-0.4,0.4-0.7,0.9-0.8,1.5l-0.9,6.6l-0.9,6.9l-1.3,9.6l-0.9,6.9
		l-0.8,5.8c-0.1,0.6,0.1,1.2,0.5,1.6c0.4,0.4,0.9,0.8,1.6,0.9l2,0.2c0.7,0.1,1.3,0.1,2,0.2l2,0.2c0.7,0.1,1.3,0.1,2,0.2
		c1.3,0.1,2.5-0.8,2.5-2l0.5-5.9l0.5-7L397.5,150.8L397.5,150.8z"/>
	<path class="st1" d="M436.1,150.6L436.1,150.6c2.9-0.2,5.8-0.5,8.6-0.9l-0.8-6.9c-2.8,0.3-5.6,0.6-8.4,0.8l0,0c-3,0.2-6,0.4-9,0.6
		l0.3,7C429.9,151.1,433,150.9,436.1,150.6L436.1,150.6z"/>
	<path class="st1" d="M406.3,160.9c-3.2-0.1-6.4-0.3-9.6-0.6l-0.5,7c3.3,0.3,6.6,0.5,9.9,0.6l0,0c3.1,0.1,6.2,0.2,9.3,0.2v-7
		C412.4,161.1,409.4,161.1,406.3,160.9L406.3,160.9z"/>
	<path class="st2" d="M426.9,151.2l-0.3-7l-0.3-6.7c0-0.6-0.3-1.1-0.7-1.5c-0.2-0.2-0.4-0.3-0.7-0.4c-0.2-0.1-0.5-0.2-0.8-0.1l0,0
		c-2.3,0.1-4.5,0.1-6.8,0.2c-1.1,0-2,1-2,2.2v6.7v7v9.6v7v5.9c0,1.2,1.1,2.2,2.4,2.2c2.7,0,5.3-0.1,8-0.2c0.3,0,0.6-0.1,0.9-0.2
		c0.3-0.1,0.5-0.3,0.7-0.5c0.4-0.4,0.6-1,0.6-1.6l-0.3-5.9l-0.3-7L426.9,151.2L426.9,151.2z"/>
	<path class="st1" d="M464.1,139.9c-3,0.5-6,1-9,1.5l1,6.9c3.1-0.5,6.1-0.9,9.1-1.5l0,0L464.1,139.9z"/>
	<path class="st1" d="M436.9,160.2L436.9,160.2c-3.2,0.3-6.4,0.5-9.6,0.6l0.3,7c3.3-0.1,6.5-0.4,9.8-0.6l0,0
		c3.1-0.2,6.1-0.6,9.1-0.9l-0.8-6.9C442.8,159.7,439.9,160,436.9,160.2L436.9,160.2z"/>
	<path class="st1" d="M468.3,163.1L468.3,163.1l-1.2-6.9c-3.1,0.6-6.3,1.1-9.4,1.5l1,6.9C461.9,164.2,465.1,163.7,468.3,163.1
		L468.3,163.1z"/>
	<path class="st2" d="M454.2,134.7c-0.2-1.2-1.2-2.1-2.4-1.9l0,0l-3.4,0.5l-3.4,0.4c-1.1,0.1-1.9,1.2-1.8,2.4l0.8,6.7l0.8,6.9
		l1.1,9.6l0.8,6.9l0.7,5.9c0.1,1.2,1.3,2.1,2.5,1.9l3.9-0.5l3.9-0.5c1.3-0.2,2.1-1.3,2-2.5l-0.9-5.8l-1-6.9l-1.4-9.5l-1-6.9
		L454.2,134.7L454.2,134.7z"/>
	<path class="st1" d="M494.3,140.4L494.3,140.4L494.3,140.4c2.8-0.7,5.6-1.5,8.5-2.3l-1.9-6.7c-2.8,0.8-5.5,1.5-8.3,2.2l0,0
		c-3,0.8-5.9,1.5-8.9,2.2l1.6,6.8C488.2,141.9,491.3,141.2,494.3,140.4L494.3,140.4z"/>
	<path class="st1" d="M464.1,139.9l1.2,6.9c2.9-0.5,5.7-1.1,8.6-1.6l-1.4-6.8C469.7,138.8,466.9,139.4,464.1,139.9z"/>
	<path class="st1" d="M467,156.2l1.2,6.9c3-0.5,6-1.1,9-1.7l-1.4-6.8C472.9,155.1,470,155.7,467,156.2L467,156.2z"/>
	<path class="st2" d="M485.2,142.6l-1.6-6.8l-1.5-6.5c-0.3-1.2-1.4-1.9-2.5-1.7l0,0c-2.3,0.5-4.6,1-6.8,1.5c-0.6,0.1-1,0.5-1.3,0.9
		s-0.4,1.1-0.3,1.6l1.3,6.6l1.4,6.8l1.9,9.4l1.4,6.8l1.2,5.8c0.1,0.6,0.5,1.1,1,1.4s1.1,0.4,1.7,0.3c2.5-0.5,5-1.1,7.6-1.7
		c1.2-0.3,2-1.5,1.7-2.7l-1.3-5.7l-1.6-6.8L485.2,142.6L485.2,142.6z"/>
	<path class="st1" d="M522.8,132.2l-2.1-6.7c-2.9,0.9-5.9,1.8-8.8,2.7l2,6.7C516.9,134,519.8,133.1,522.8,132.2L522.8,132.2z"/>
	<path class="st1" d="M496.7,149.7L496.7,149.7c-3.1,0.8-6.1,1.5-9.2,2.2l1.6,6.8c3.1-0.7,6.3-1.5,9.4-2.3l0,0l0,0
		c2.9-0.8,5.8-1.5,8.7-2.3l-1.9-6.7C502.4,148.2,499.5,149,496.7,149.7L496.7,149.7z"/>
	<path class="st2" d="M513.9,134.9l-2-6.7l-1.9-6.4c-0.4-1.2-1.5-1.8-2.6-1.5c-2.3,0.7-4.5,1.3-6.8,2c-1.1,0.3-1.8,1.5-1.4,2.7
		l1.8,6.5l1.9,6.7l2.6,9.3l1.9,6.7l1.6,5.7c0.3,1.2,1.6,1.9,2.8,1.5c2.5-0.7,4.9-1.4,7.4-2.1c1.2-0.4,1.9-1.6,1.5-2.8l-1.7-5.6
		l-2-6.7L513.9,134.9L513.9,134.9z"/>
	<path class="st1" d="M520.7,125.6l2.1,6.6c2.8-0.9,5.6-1.8,8.3-2.7l-2.2-6.6C526.2,123.8,523.5,124.7,520.7,125.6L520.7,125.6z"/>
	<path class="st1" d="M556.6,138.3l-2.4-6.6c-3,1.1-5.9,2.1-8.9,3.1l2.3,6.6C550.6,140.4,553.6,139.3,556.6,138.3L556.6,138.3z"/>
	<path class="st1" d="M525.7,141.4c-3,0.9-6,1.9-9.1,2.8l2,6.7c3.1-0.9,6.1-1.9,9.2-2.8c2.9-0.9,5.7-1.8,8.5-2.8l-2.2-6.6
		C531.4,139.6,528.5,140.5,525.7,141.4L525.7,141.4z"/>
	<path class="st2" d="M537.7,112.8c-0.4-1.2-1.6-1.8-2.7-1.4l0,0c-1.1,0.4-2.3,0.8-3.4,1.2c-1.1,0.4-2.3,0.8-3.4,1.2
		c-1.1,0.4-1.7,1.6-1.3,2.8l2.1,6.4l2.2,6.6l3,9.1l2.2,6.6l1.8,5.6c0.4,1.2,1.7,1.8,2.8,1.4c1.2-0.4,2.4-0.8,3.6-1.2
		c1.2-0.4,2.4-0.8,3.6-1.2c1.2-0.4,1.8-1.7,1.4-2.8l-1.9-5.6l-2.3-6.6l-3.2-9.1l-2.3-6.6L537.7,112.8L537.7,112.8z"/>
	<polygon class="st1" points="578.9,112.2 578.9,112.2 578.9,112.2 	"/>
	<path class="st1" d="M548.6,116.1L548.6,116.1c-2.9,1.1-5.8,2.1-8.7,3.1l2.3,6.6c2.9-1,5.9-2.1,8.8-3.1l0,0c2.8-1,5.5-2,8.2-3
		l-2.4-6.5C554.1,114.1,551.4,115.1,548.6,116.1z"/>
	<path class="st1" d="M578.9,112.2l-2.5-6.5c-2.9,1.1-5.8,2.2-8.7,3.3l2.5,6.5C573.1,114.4,576,113.3,578.9,112.2L578.9,112.2z"/>
	<path class="st1" d="M554.3,131.7l2.4,6.6c2.8-1,5.6-2.1,8.4-3.1l-2.4-6.6C559.8,129.7,557,130.7,554.3,131.7L554.3,131.7z"/>
	<path class="st2" d="M570.2,115.5l-2.5-6.5l-2.4-6.3c-0.4-1.1-1.7-1.7-2.8-1.3l0,0l-3.4,1.3l-3.4,1.3c-1.1,0.4-1.7,1.7-1.2,2.8
		l2.3,6.3l2.4,6.5l3.3,9l2.4,6.6l2,5.5c0.4,1.1,1.7,1.7,2.8,1.3l3.5-1.3l3.5-1.3c1.1-0.4,1.7-1.7,1.3-2.9l-2.1-5.5l-2.5-6.5
		L570.2,115.5L570.2,115.5z"/>
	<path class="st1" d="M606.9,101.3c2.8-1.1,5.5-2.1,8.3-3.2l-2.5-6.5c-2.8,1.1-5.5,2.1-8.3,3.2l0,0c-2.9,1.1-5.9,2.3-8.8,3.4
		l2.5,6.5C601,103.6,603.9,102.5,606.9,101.3L606.9,101.3z"/>
	<polygon class="st1" points="584.6,102.5 576.4,105.7 578.9,112.2 587.2,109 	"/>
	<path class="st1" d="M582.4,121.2L582.4,121.2c-2.9,1.1-5.9,2.2-8.8,3.4l2.5,6.5c3-1.1,5.9-2.2,8.8-3.4l0,0l8.3-3.2l-2.5-6.5
		C590.6,117.9,582.4,121.1,582.4,121.2z"/>
	<path class="st2" d="M598.1,104.7l-2.5-6.5l-2.4-6.3c-0.4-1.1-1.7-1.7-2.8-1.3l0,0l-6.9,2.7c-1.1,0.4-1.7,1.7-1.2,2.8l2.4,6.3
		l2.5,6.5l3.5,9l2.5,6.5l2.1,5.5c0.4,1.1,1.7,1.7,2.8,1.3l6.9-2.7c1.1-0.4,1.7-1.7,1.2-2.8l-2.1-5.5l-2.5-6.5L598.1,104.7
		L598.1,104.7z"/>
	<path class="st1" d="M635,90.8c2.8-1,5.6-2,8.3-3l-2.3-6.6c-2.8,1-5.6,2-8.4,3c-3,1.1-5.9,2.2-8.9,3.3l2.4,6.5
		C629.1,92.9,632,91.8,635,90.8L635,90.8z"/>
	<path class="st1" d="M610.3,110.3c-2.9,1.1-5.8,2.3-8.8,3.4l2.5,6.5c2.9-1.1,5.8-2.3,8.7-3.4l0,0c2.7-1.1,5.5-2.1,8.2-3.1l-2.5-6.5
		C615.8,108.2,613.1,109.3,610.3,110.3L610.3,110.3z"/>
	<path class="st2" d="M626.1,94.1l-2.4-6.5l-2.3-6.3c-0.4-1.1-1.7-1.7-2.8-1.3l0,0l-7,2.6c-1.1,0.4-1.7,1.7-1.3,2.8l2.4,6.3l2.5,6.5
		l3.4,9l2.5,6.5l2.1,5.5c0.4,1.1,1.7,1.7,2.8,1.3l6.8-2.6c1.1-0.4,1.7-1.7,1.2-2.8l-2-5.5l-2.4-6.5L626.1,94.1L626.1,94.1z"/>
	<path class="st1" d="M663.4,81l-2.1-6.6c-3,1-6,2-9.1,3l2.2,6.6C657.4,83,660.4,82,663.4,81L663.4,81z"/>
	<polygon class="st1" points="663.4,81 663.4,81 663.4,81 	"/>
	<path class="st1" d="M657.5,93.1l2.2,6.6c2.9-1,5.8-1.9,8.8-2.9l-2.1-6.6C663.4,91.1,660.5,92.1,657.5,93.1z"/>
	<polygon class="st1" points="668.5,96.8 668.5,96.8 668.5,96.8 	"/>
	<path class="st1" d="M638.2,99.8c-2.9,1.1-5.8,2.2-8.8,3.2l2.4,6.5c2.9-1.1,5.8-2.2,8.7-3.2c2.7-1,5.5-2,8.2-2.9l-2.3-6.6
		C643.8,97.8,641,98.8,638.2,99.8L638.2,99.8z"/>
	<path class="st2" d="M654.5,84l-2.2-6.6l-2.2-6.4c-0.4-1.2-1.7-1.8-2.8-1.4l0,0c-2.4,0.8-4.8,1.6-7.1,2.5c-1.2,0.4-1.8,1.7-1.4,2.8
		l2.2,6.3l2.3,6.6l3.2,9.1l2.3,6.6l2,5.6c0.4,1.2,1.6,1.8,2.7,1.4c2.3-0.8,4.5-1.6,6.8-2.3c1.1-0.4,1.7-1.6,1.3-2.8l-1.9-5.6
		l-2.2-6.6L654.5,84L654.5,84z"/>
	<path class="st1" d="M692.4,72.5c2.9-0.8,5.8-1.5,8.7-2.2l-1.6-6.8c-2.9,0.7-5.9,1.4-8.8,2.2l0,0c-3.1,0.8-6.2,1.7-9.3,2.5l1.9,6.7
		C686.3,74.2,689.3,73.3,692.4,72.5L692.4,72.5z"/>
	<path class="st1" d="M669.9,71.7c-2.9,0.9-5.7,1.8-8.6,2.7l2.1,6.6c2.8-0.9,5.7-1.8,8.5-2.7L669.9,71.7z"/>
	<path class="st1" d="M666.4,90.2l2.1,6.6c2.8-0.9,5.5-1.7,8.3-2.6l-2-6.7C672,88.4,669.2,89.3,666.4,90.2L666.4,90.2z"/>
	<path class="st2" d="M683.2,75l-1.9-6.7l-1.8-6.5c-0.3-1.2-1.6-1.9-2.8-1.5l0,0c-1.2,0.4-2.5,0.7-3.7,1.1s-2.4,0.7-3.7,1.1
		c-1.2,0.4-1.9,1.6-1.5,2.8l2,6.4l2,6.7l2.8,9.2l2,6.7l1.7,5.6c0.4,1.2,1.5,1.8,2.7,1.5c1.1-0.3,2.3-0.7,3.4-1s2.3-0.7,3.4-1
		c1.1-0.3,1.7-1.5,1.4-2.7l-1.6-5.7l-1.9-6.7L683.2,75L683.2,75z"/>
	<path class="st1" d="M721.9,65.9L721.9,65.9l-1.3-6.9c-3.2,0.6-6.3,1.2-9.5,1.9l1.4,6.8C715.7,67.1,718.8,66.5,721.9,65.9
		L721.9,65.9z"/>
	<path class="st1" d="M723.7,75.3c-3,0.6-6.1,1.2-9.1,1.8L716,84c3-0.6,5.9-1.2,8.9-1.8l0,0L723.7,75.3L723.7,75.3z"/>
	<path class="st1" d="M694.8,81.8L694.8,81.8c-3,0.8-6,1.6-9,2.5l1.9,6.7c2.9-0.8,5.9-1.7,8.8-2.4c2.8-0.7,5.5-1.4,8.3-2.1l-1.6-6.8
		C700.5,80.4,697.6,81.1,694.8,81.8L694.8,81.8z"/>
	<path class="st2" d="M712.6,67.7l-1.4-6.8l-1.4-6.6c-0.2-1.2-1.5-2-2.7-1.7l0,0l-3.8,0.8l-3.8,0.9c-1.2,0.3-2,1.5-1.7,2.7l1.6,6.5
		l1.6,6.8l2.3,9.4l1.6,6.8l1.4,5.7c0.3,1.2,1.4,1.9,2.5,1.7l3.4-0.8l3.4-0.8c1.1-0.2,1.8-1.4,1.6-2.6L716,84l-1.4-6.8L712.6,67.7
		L712.6,67.7z"/>
	<path class="st1" d="M752,61.8L752,61.8c3-0.2,6-0.5,9-0.6l-0.4-7c-3.1,0.2-6.1,0.4-9.2,0.6l0,0c-3.2,0.3-6.5,0.6-9.7,1l0.8,6.9
		C745.7,62.4,748.8,62.1,752,61.8L752,61.8z"/>
	<path class="st1" d="M720.7,59l1.3,6.9c2.9-0.5,5.9-1,8.8-1.5l-1.1-6.9C726.7,58,723.7,58.5,720.7,59z"/>
	<path class="st1" d="M723.7,75.3l1.3,6.9c2.8-0.5,5.6-1,8.4-1.4l-1.1-6.9C729.4,74.3,726.5,74.8,723.7,75.3z"/>
	<path class="st2" d="M742.5,62.8l-0.8-6.9l-0.8-6.7c-0.1-1.2-1.3-2.1-2.6-1.9l0,0c-2.6,0.3-5.2,0.7-7.8,1.1
		c-0.6,0.1-1.2,0.4-1.5,0.9c-0.3,0.5-0.5,1-0.4,1.7l1,6.7l1.1,6.9l1.5,9.5l1.1,6.9l0.9,5.8c0.1,0.6,0.4,1.1,0.8,1.4
		c0.4,0.3,1,0.5,1.5,0.4c2.3-0.3,4.5-0.7,6.8-0.9c1.1-0.1,1.9-1.2,1.8-2.4l-0.7-5.8l-0.8-6.9L742.5,62.8L742.5,62.8z"/>
	<path class="st1" d="M782.4,61L782.4,61L782.4,61c3,0.1,6,0.3,9,0.5l0.5-7c-3.1-0.2-6.2-0.4-9.2-0.5l0,0c-3.3-0.1-6.6-0.1-9.8-0.1
		l0,7C776,60.8,779.2,60.8,782.4,61L782.4,61z"/>
	<path class="st1" d="M752.8,71.4L752.8,71.4c-3.1,0.3-6.1,0.6-9.2,0.9l0.8,6.9c3-0.3,6-0.7,9-0.9c2.8-0.2,5.6-0.4,8.4-0.6l-0.4-7
		C758.6,70.9,755.7,71.1,752.8,71.4L752.8,71.4z"/>
	<path class="st2" d="M772.9,60.8l0-7l0-6.7c0-0.6-0.3-1.2-0.7-1.6c-0.4-0.4-1-0.6-1.7-0.6l0,0l-2,0l-2,0.1l-2,0.1l-2,0.1
		c-0.7,0-1.2,0.3-1.6,0.7c-0.4,0.4-0.6,1-0.6,1.6l0.3,6.7l0.4,7l0.5,9.6l0.4,7l0.3,5.9c0,0.6,0.3,1.2,0.7,1.5s0.9,0.6,1.5,0.6
		l1.7-0.1l1.7-0.1l1.7-0.1l1.7,0c0.5,0,1-0.3,1.4-0.7c0.4-0.4,0.6-0.9,0.6-1.6l0-5.9l0-7L772.9,60.8L772.9,60.8z"/>
	<path class="st1" d="M804.2,55.7l-0.9,6.9c3.2,0.4,6.3,0.8,9.5,1.4l0,0l1.2-6.9C810.7,56.5,807.4,56.1,804.2,55.7z"/>
	<path class="st1" d="M782.1,70.6L782.1,70.6c-3.1-0.1-6.1-0.1-9.2-0.1l0,7c3,0,6,0,8.9,0.1l0,0c2.8,0.1,5.6,0.2,8.3,0.4l0.5-7
		C787.8,70.8,785,70.7,782.1,70.6L782.1,70.6z"/>
	<polygon class="st1" points="810,80.3 810,80.3 810,80.3 	"/>
	<path class="st1" d="M810,80.3l1.2-6.9c-3-0.5-6-0.9-9.1-1.3l-0.9,6.9C804.2,79.4,807.1,79.8,810,80.3L810,80.3z"/>
	<path class="st2" d="M805,49c0.1-0.6-0.1-1.2-0.5-1.6c-0.4-0.5-0.9-0.8-1.6-0.8l0,0l-2-0.2c-0.7-0.1-1.3-0.2-2-0.2l-2-0.2l-1-0.1
		c-0.3,0-0.7,0-1-0.1c-1.3-0.1-2.4,0.8-2.5,2l-0.5,6.7l-0.5,7l-0.7,9.6l-0.5,7l-0.4,5.9c-0.1,1.2,0.7,2.3,1.8,2.4
		c0.3,0,0.6,0,0.8,0.1l0.8,0.1l1.7,0.2c0.6,0.1,1.1,0.1,1.7,0.2l1.7,0.2c0.5,0.1,1.1-0.1,1.5-0.5c0.4-0.3,0.7-0.9,0.8-1.5l0.7-5.8
		l0.9-6.9l1.2-9.6l0.9-6.9L805,49L805,49z"/>
</g>
<g>
	<path class="st0" d="M673.7,84.5l-2.8-9.2c-2.8,0.9-5.7,1.8-8.5,2.7l0,0l0,0c-3,1-6,2-9,3l3.1,9.1c3-1,5.9-2,8.9-2.9l2.1,6.6l0,0
		l-2.1-6.6C668.1,86.2,670.9,85.4,673.7,84.5z"/>
	<path class="st0" d="M493.2,137.4L493.2,137.4c-3,0.8-6,1.5-9,2.2l2.2,9.4c3.1-0.7,6.2-1.5,9.2-2.2l0,0c2.9-0.7,5.8-1.5,8.6-2.3
		l-2.6-9.3C498.9,135.9,496.1,136.7,493.2,137.4L493.2,137.4L493.2,137.4z"/>
	<path class="st0" d="M383.8,156.1l1.3-9.6c-2.9-0.4-5.7-0.8-8.5-1.3l0,0c-3-0.5-6-1.1-9-1.8l-2.1,9.4c3.1,0.7,6.3,1.4,9.4,1.9
		l-1.2,6.9l0,0l1.2-6.9C377.8,155.2,380.8,155.7,383.8,156.1L383.8,156.1z"/>
	<path class="st0" d="M134.2,106.3l2.6,9.3c2.9-0.8,5.9-1.6,8.9-2.3l0,0c2.8-0.7,5.6-1.2,8.4-1.8l-1.9-9.5c-2.9,0.6-5.9,1.2-8.8,1.9
		C140.4,104.6,137.3,105.4,134.2,106.3L134.2,106.3z"/>
	<path class="st0" d="M572.6,121.5c2.9-1.1,5.9-2.2,8.8-3.4l0,0l8.2-3.2l-3.5-9l-8.2,3.2l0,0l0,0c-2.9,1.1-5.8,2.2-8.8,3.3
		L572.6,121.5z"/>
	<path class="st0" d="M625.1,91l3.4,9c2.9-1.1,5.8-2.2,8.8-3.2c2.8-1,5.5-2,8.3-2.9l-3.2-9.1c-2.8,1-5.6,2-8.3,3
		C631,88.8,628,90,625.1,91L625.1,91z"/>
	<path class="st0" d="M781.4,57.9L781.4,57.9c-3.2-0.1-6.4-0.1-9.6-0.1l0.1,9.6c3.1,0,6.1,0,9.2,0.1l0,0c2.9,0.1,5.7,0.2,8.6,0.5
		l0.7-9.6C787.4,58.2,784.4,58,781.4,57.9L781.4,57.9L781.4,57.9z"/>
	<path class="st0" d="M682.2,72l2.6,9.3c3-0.8,6-1.7,9-2.5l0,0c2.8-0.7,5.6-1.4,8.5-2.1l-2.3-9.4c-2.9,0.7-5.8,1.4-8.7,2.2
		C688.3,70.3,685.2,71.1,682.2,72L682.2,72z"/>
	<path class="st0" d="M292.8,125.9l3.4,1.4l1.2,0.5l3.7-8.9l-1.2-0.5l-3.5-1.4l-3.5-1.4c-0.6-0.2-1.2-0.5-1.8-0.7l-1.8-0.7
		c-1.2-0.4-2.4-0.9-3.5-1.4l-1.8-0.7l-3.3,9l1.8,0.7c1.1,0.4,2.3,0.9,3.4,1.3l1.7,0.7c0.6,0.2,1.1,0.5,1.7,0.7l-2.6,6.5l0,0l2.6-6.5
		L292.8,125.9L292.8,125.9z"/>
	<path class="st0" d="M597.1,101.7l3.5,9c2.9-1.1,5.8-2.3,8.8-3.4c2.7-1.1,5.5-2.1,8.2-3.1l-3.4-9c-2.8,1.1-5.5,2.1-8.3,3.2
		C602.9,99.4,600,100.6,597.1,101.7L597.1,101.7z"/>
	<path class="st0" d="M194.3,97.3l0.2,9.6c3.1-0.1,6.1-0.1,9.2-0.1c2.9,0,5.8,0.1,8.6,0.3l0.5-9.6c-3-0.2-6-0.2-9-0.3
		C200.7,97.2,197.5,97.2,194.3,97.3L194.3,97.3z"/>
	<path class="st0" d="M405.7,148.3c-3.1-0.1-6.1-0.3-9.2-0.5l-0.8,9.6c3.2,0.2,6.4,0.4,9.6,0.6c3,0.1,6,0.2,9,0.2v-9.6
		C411.4,148.4,408.6,148.4,405.7,148.3L405.7,148.3L405.7,148.3z"/>
	<polygon class="st0" points="203.7,113.9 203.7,113.9 203.8,106.9 	"/>
	<polygon class="st0" points="292.9,115.6 292.9,115.6 294.9,110.5 	"/>
	<path class="st0" d="M241.5,110.5l1.7-9.5c-2.9-0.5-5.9-1-8.9-1.4c-3.2-0.4-6.3-0.8-9.5-1.1l-1,9.6c3.1,0.3,6.1,0.7,9.1,1.1l-1,6.9
		l0,0l1-6.9C235.8,109.5,238.6,110,241.5,110.5L241.5,110.5z"/>
	<path class="st0" d="M348.2,137.9L348.2,137.9L348.2,137.9c-2.9-1-5.8-2-8.7-3.1l-3.4,9c3,1.1,6,2.2,9,3.2c2.4,0.8,4.8,1.6,7.3,2.3
		l1.3,0.4l2.7-9.2l-1.3-0.4C352.8,139.5,350.5,138.7,348.2,137.9L348.2,137.9z"/>
	<path class="st0" d="M751,58.8c-3.2,0.3-6.3,0.6-9.5,1l1.1,9.6c3.1-0.4,6.1-0.7,9.2-0.9l0,0c2.9-0.2,5.8-0.4,8.6-0.6l-0.5-9.6
		C756.9,58.3,754,58.5,751,58.8L751,58.8L751,58.8z"/>
	<path class="st0" d="M435.1,147.6L435.1,147.6c-3.1,0.2-6.1,0.4-9.2,0.6l0.5,9.6c3.2-0.1,6.4-0.4,9.6-0.6l0,0c3-0.2,6-0.6,8.9-0.9
		l-1.1-9.6C440.8,147.1,438,147.4,435.1,147.6L435.1,147.6L435.1,147.6z"/>
	<path class="st0" d="M264.1,105.7L264.1,105.7L264.1,105.7c-3.1-0.8-6.2-1.6-9.3-2.3l-2.2,9.4c3,0.7,5.9,1.4,8.9,2.2l0,0
		c2.4,0.6,4.7,1.3,7,2.1c0.4,0.1,0.8,0.3,1.2,0.4l2.9-9.2c-0.4-0.1-0.9-0.3-1.3-0.4C269,107.1,266.6,106.4,264.1,105.7L264.1,105.7z
		"/>
	<path class="st3" d="M56.4,135.2l4,5.7c2.5-1.7,5-3.4,7.5-5l-3.8-5.9C61.5,131.7,58.9,133.4,56.4,135.2L56.4,135.2z"/>
	<path class="st3" d="M86.4,125l-3.2-6.2c-2.9,1.5-5.8,3.1-8.6,4.8l3.5,6.1C80.8,128.1,83.6,126.5,86.4,125L86.4,125z"/>
	<path class="st3" d="M65.9,148.8l4,5.7c2.3-1.6,4.6-3.1,6.9-4.6l-3.8-5.9C70.7,145.5,68.3,147.1,65.9,148.8L65.9,148.8z"/>
	<path class="st4" d="M78.1,129.7l-3.5-6.1l-3.4-5.8c-0.6-1.1-2-1.4-3.2-0.7l0,0c-2.3,1.4-4.6,2.8-6.8,4.2c-0.6,0.3-0.9,0.9-1.1,1.4
		c-0.1,0.6-0.1,1.2,0.3,1.7l3.7,5.7l3.8,5.9l5.2,8.1l3.8,5.9l3.2,4.9c0.3,0.5,0.8,0.9,1.3,1c0.5,0.1,1.1,0.1,1.5-0.2
		c1.9-1.2,3.8-2.4,5.7-3.5c0.9-0.6,1.2-1.9,0.6-2.9l-2.9-5.1l-3.5-6.1L78.1,129.7L78.1,129.7z"/>
	<path class="st3" d="M114.3,112.7l-2.4-6.5c-3.1,1.1-6.1,2.3-9.2,3.6l2.7,6.5C108.3,115,111.3,113.8,114.3,112.7L114.3,112.7z"/>
	<path class="st3" d="M83.2,118.8l3.2,6.2c2.7-1.4,5.3-2.7,8.1-4l-3-6.3C88.7,116.1,85.9,117.4,83.2,118.8L83.2,118.8z"/>
	<path class="st3" d="M90.9,133.6L90.9,133.6c-2.7,1.4-5.4,2.9-8,4.4l3.5,6.1c2.6-1.5,5.2-2.9,7.8-4.3l0,0c2.5-1.3,5-2.5,7.5-3.7
		l-3-6.3C96,131,93.4,132.2,90.9,133.6L90.9,133.6z"/>
	<path class="st4" d="M105.4,116.2l-2.7-6.5l-2.6-6.2c-0.5-1.1-1.8-1.6-3-1.1c-1.2,0.5-2.4,1.1-3.7,1.6l-1.8,0.8
		c-0.6,0.3-1.2,0.6-1.8,0.8c-1.2,0.6-1.7,1.9-1.2,3l2.9,6.1l3,6.3l4.1,8.7l3,6.3l2.5,5.3c0.5,1.1,1.8,1.6,2.8,1.1
		c0.5-0.2,1-0.5,1.5-0.7l1.5-0.7c1-0.4,2.1-0.9,3.1-1.4c1-0.4,1.4-1.7,1-2.8l-2.2-5.4l-2.7-6.4L105.4,116.2L105.4,116.2z"/>
	<path class="st3" d="M111.9,106.1l2.4,6.5c2.8-1,5.6-2,8.5-2.9l-2.2-6.6C117.6,104,114.7,105,111.9,106.1L111.9,106.1z"/>
	<path class="st3" d="M143.4,103.9c2.9-0.7,5.8-1.3,8.8-1.9l-1.4-6.8c-3,0.6-6,1.2-9,1.9l0,0c-3.2,0.8-6.4,1.6-9.5,2.4l1.9,6.7
		C137.3,105.4,140.3,104.6,143.4,103.9L143.4,103.9z"/>
	<path class="st3" d="M117.6,121.7c-2.9,1.1-5.7,2.2-8.5,3.4l2.7,6.4c2.7-1.1,5.5-2.2,8.3-3.3c2.6-1,5.3-1.9,7.9-2.8l-2.2-6.6
		C123.1,119.8,120.3,120.7,117.6,121.7L117.6,121.7z"/>
	<path class="st4" d="M134.2,106.3l-1.9-6.7l-1.8-6.5c-0.3-1.2-1.6-1.9-2.9-1.5l-1.9,0.6c-0.6,0.2-1.3,0.4-1.9,0.6l-1.9,0.6
		l-1.9,0.6c-0.6,0.2-1.1,0.6-1.4,1.1s-0.4,1.1-0.2,1.7l2.1,6.4l2.2,6.6l3,9.2l2.2,6.6l1.8,5.6c0.2,0.6,0.6,1,1,1.3
		c0.5,0.3,1,0.4,1.5,0.2l1.6-0.5l1.6-0.5c0.5-0.2,1.1-0.3,1.6-0.5l1.6-0.5c1.1-0.3,1.6-1.5,1.3-2.7l-1.6-5.7l-1.9-6.7L134.2,106.3
		L134.2,106.3z"/>
	<path class="st3" d="M173.5,98.7l-0.8-6.9c-3.3,0.4-6.5,0.8-9.8,1.3l1,6.9C167.1,99.5,170.3,99.1,173.5,98.7L173.5,98.7z"/>
	<path class="st3" d="M145.6,113.2L145.6,113.2c-3,0.7-5.9,1.5-8.9,2.3l1.9,6.7c2.9-0.8,5.7-1.6,8.6-2.2c2.7-0.6,5.5-1.2,8.2-1.8
		l-1.4-6.8C151.3,112,148.5,112.6,145.6,113.2L145.6,113.2z"/>
	<path class="st4" d="M164,99.9l-1-6.9l-1-6.7c-0.2-1.2-1.4-2-2.6-1.8l0,0c-2.6,0.4-5.2,0.9-7.9,1.4c-0.6,0.1-1.2,0.5-1.5,0.9
		c-0.3,0.5-0.5,1.1-0.4,1.7l1.3,6.6l1.4,6.8l1.9,9.5l1.4,6.8l1.1,5.8c0.1,0.6,0.4,1.1,0.9,1.4c0.4,0.3,1,0.5,1.5,0.4
		c2.2-0.4,4.4-0.8,6.7-1.2c1.1-0.2,1.8-1.3,1.6-2.5l-0.9-5.8l-1-6.9L164,99.9L164,99.9z"/>
	<path class="st3" d="M172.7,91.8l0.8,6.9c3-0.3,6-0.6,8.9-0.8l-0.5-7C178.8,91.2,175.8,91.4,172.7,91.8L172.7,91.8z"/>
	<path class="st3" d="M203.9,97.2c3,0,6,0.1,9,0.3l0.4-7c-3.1-0.2-6.2-0.3-9.2-0.3c-3.3,0-6.6,0-9.8,0.1l0.2,7
		C197.5,97.2,200.7,97.2,203.9,97.2L203.9,97.2z"/>
	<path class="st3" d="M174.5,108.3c-3.1,0.3-6.1,0.8-9.1,1.2l1,6.9c2.9-0.4,5.9-0.8,8.9-1.2c2.8-0.3,5.6-0.5,8.4-0.8l-0.5-7
		C180.3,107.7,177.4,108,174.5,108.3L174.5,108.3z"/>
	<path class="st3" d="M203.8,106.9c-3.1,0-6.1,0-9.2,0.1l0.2,7c3-0.1,5.9-0.1,8.9-0.1l0,0L203.8,106.9L203.8,106.9z"/>
	<path class="st4" d="M194.3,97.3l-0.2-7l-0.2-6.7c0-1.2-1.1-2.2-2.4-2.2c-1.3,0.1-2.7,0.1-4,0.2l-2,0.1c-0.7,0-1.3,0.1-2,0.1
		c-1.3,0.1-2.3,1.2-2.2,2.4l0.5,6.7l0.5,7l0.7,9.6l0.5,7l0.4,5.8c0.1,1.2,1.1,2.1,2.1,2.1c0.6,0,1.1-0.1,1.7-0.1l1.7-0.1
		c1.1-0.1,2.2-0.1,3.4-0.1c1.1,0,2-1,1.9-2.3l-0.1-5.9l-0.2-7L194.3,97.3L194.3,97.3z"/>
	<path class="st3" d="M234.3,99.6c3,0.4,5.9,0.9,8.9,1.4l1.2-6.9c-3-0.5-6.1-1-9.1-1.5c-3.2-0.4-6.5-0.8-9.8-1.2l-0.7,6.9
		C227.9,98.7,231.1,99.1,234.3,99.6L234.3,99.6z"/>
	<path class="st3" d="M232.9,109.1c-3-0.4-6.1-0.8-9.1-1.1l-0.7,7c2.9,0.3,5.9,0.6,8.9,1l0,0L232.9,109.1L232.9,109.1z"/>
	<path class="st3" d="M203.8,106.9l-0.1,7c2.8,0,5.6,0.1,8.4,0.3l0.4-7C209.5,107,206.6,106.9,203.8,106.9L203.8,106.9z"/>
	<path class="st4" d="M224.8,98.4l0.7-6.9l0.7-6.7c0.1-0.6-0.1-1.2-0.5-1.6c-0.4-0.4-0.9-0.7-1.6-0.8l0,0l-2-0.2
		c-0.7-0.1-1.3-0.1-2-0.2l-2-0.2l-2-0.1c-0.6,0-1.2,0.2-1.7,0.6c-0.4,0.4-0.7,0.9-0.8,1.5l-0.3,6.7l-0.4,7l-0.5,9.6l-0.4,7l-0.3,5.9
		c0,0.6,0.2,1.2,0.5,1.6s0.8,0.7,1.4,0.7l1.7,0.1l1.7,0.1c0.6,0,1.1,0.1,1.7,0.1l1.7,0.2c0.6,0.1,1.1-0.2,1.5-0.5
		c0.4-0.4,0.7-0.9,0.7-1.5l0.6-5.8l0.7-7L224.8,98.4L224.8,98.4z"/>
	<path class="st3" d="M264.1,105.7L264.1,105.7c2.5,0.7,4.9,1.4,7.3,2.2c0.4,0.1,0.9,0.3,1.3,0.4l2.1-6.7c-0.5-0.2-0.9-0.3-1.3-0.4
		c-2.5-0.8-5-1.5-7.5-2.2l0,0c-3.2-0.9-6.4-1.7-9.6-2.4l-1.6,6.8C258,104.1,261.1,104.9,264.1,105.7L264.1,105.7z"/>
	<path class="st3" d="M232.9,109.1l-1,6.9c2.8,0.4,5.5,0.8,8.3,1.3l1.2-6.9C238.6,110,235.8,109.5,232.9,109.1L232.9,109.1z"/>
	<path class="st4" d="M254.9,103.4l1.6-6.8L258,90c0.3-1.2-0.5-2.4-1.8-2.7l0,0c-2.6-0.6-5.2-1.1-7.9-1.6c-0.6-0.1-1.3,0-1.8,0.3
		c-0.5,0.3-0.9,0.8-1,1.4l-1.2,6.6l-1.2,6.9l-1.7,9.5l-1.2,6.9l-1,5.8c-0.1,0.6,0,1.2,0.3,1.6s0.7,0.8,1.3,0.9
		c2.2,0.4,4.4,0.9,6.6,1.3c1.1,0.2,2.1-0.5,2.4-1.7l1.3-5.7l1.6-6.8L254.9,103.4L254.9,103.4z"/>
	<path class="st3" d="M285.9,112.9c1.2,0.4,2.4,0.9,3.5,1.4l1.8,0.7c0.6,0.2,1.2,0.5,1.8,0.7l0,0l2-5.1l-2,5.1l3.5,1.4l3.5,1.4
		l1.2,0.5l2.7-6.4l-1.3-0.5l-3.5-1.5l-3.6-1.4l0,0c-0.6-0.2-1.2-0.5-1.8-0.7l-1.8-0.7c-1.2-0.5-2.4-0.9-3.6-1.4l-1.9-0.7l-2.4,6.6
		L285.9,112.9L285.9,112.9z"/>
	<path class="st3" d="M268.6,117.1c-2.3-0.7-4.7-1.4-7-2.1l0,0c-3-0.8-5.9-1.6-8.9-2.2l-1.6,6.8c2.9,0.7,5.8,1.4,8.6,2.2l0,0
		c2.3,0.6,4.5,1.3,6.8,2c0.4,0.1,0.8,0.2,1.2,0.4l2.1-6.7C269.4,117.3,269,117.2,268.6,117.1L268.6,117.1z"/>
	<path class="st3" d="M287.6,123.9l-1.7-0.7c-1.1-0.4-2.3-0.9-3.4-1.3l-1.8-0.7l-2.4,6.6l1.7,0.6c1.1,0.4,2.2,0.9,3.4,1.3l1.7,0.6
		c0.6,0.2,1.1,0.4,1.7,0.7l2.6-6.5C288.8,124.3,288.2,124.1,287.6,123.9L287.6,123.9z"/>
	<polygon class="st3" points="286.7,131 286.7,131 286.7,131 	"/>
	<path class="st4" d="M284,112.2l2.4-6.6l2.3-6.3c0.4-1.1-0.2-2.4-1.4-2.9l0,0c-1.2-0.5-2.5-0.9-3.7-1.3l-1.9-0.7
		c-0.6-0.2-1.2-0.4-1.9-0.6c-1.2-0.4-2.6,0.2-2.9,1.4l-2,6.4l-2.1,6.7l-2.9,9.2l-2.1,6.7l-1.8,5.6c-0.4,1.2,0.2,2.4,1.2,2.7
		c0.5,0.2,1.1,0.4,1.6,0.5l1.6,0.6c1.1,0.4,2.1,0.7,3.2,1.1c1,0.4,2.2-0.2,2.7-1.4l2-5.5l2.4-6.6L284,112.2L284,112.2z"/>
	<polygon class="st3" points="313.7,124.3 317.1,125.8 320.6,127.2 323.3,120.8 319.9,119.4 316.5,117.9 314.7,117.2 312,123.6 	"/>
	<polygon class="st3" points="296.2,127.4 292.8,125.9 289.3,124.6 286.7,131 290.1,132.4 293.5,133.8 294.7,134.3 297.4,127.9 	"/>
	<path class="st4" d="M312,123.6l2.7-6.4l2.6-6.2c0.5-1.1,0-2.4-1.1-2.9l0,0l-3.4-1.5l-3.5-1.5c-0.6-0.2-1.2-0.2-1.7,0
		c-0.5,0.2-1,0.6-1.2,1.2l-2.6,6.2l-2.7,6.4l-3.7,8.9l-2.7,6.4l-2.3,5.4c-0.2,0.6-0.2,1.2,0,1.7c0.2,0.5,0.6,0.9,1.1,1.2l3.3,1.4
		l3.4,1.4c1.1,0.5,2.4-0.1,2.9-1.2l2.3-5.4l2.7-6.4L312,123.6L312,123.6z"/>
	<polygon class="st3" points="330.1,123.7 326.7,122.2 325,121.5 323.3,120.8 320.6,127.2 322.3,128 324,128.7 327.5,130.1 
		328.7,130.6 331.3,124.2 	"/>
	<path class="st3" d="M348.2,137.9L348.2,137.9L348.2,137.9c2.3,0.8,4.6,1.5,7,2.2l1.3,0.4l2-6.7l-1.2-0.4c-2.3-0.6-4.5-1.4-6.8-2.1
		l0,0l-0.4-0.1l-0.4-0.1l-0.8-0.3l-1.7-0.6l-1.7-0.6l-0.4-0.1l-0.4-0.2l-0.8-0.3l-1.7-0.6l-2.5,6.5
		C342.4,135.9,345.3,137,348.2,137.9L348.2,137.9z"/>
	<polygon class="st3" points="323.8,139 320.3,137.6 318.6,136.9 316.8,136.1 316.8,136.1 313.4,134.6 309.9,133.2 308.2,132.4 
		305.4,138.8 307.2,139.6 310.6,141.1 314.1,142.6 314.1,142.6 315.9,143.3 317.6,144 321.1,145.5 322.4,146 325,139.5 	"/>
	<path class="st4" d="M339.5,134.9l2.5-6.5l2.4-6.3c0.4-1.1-0.1-2.4-1.1-2.8l0,0l-3.2-1.3l-1.6-0.6l-1.6-0.7
		c-1.1-0.4-2.3,0.1-2.8,1.3l-2.5,6.2l-2.6,6.5l-3.6,8.9l-2.6,6.5l-2.2,5.4c-0.5,1.1,0.1,2.4,1.3,2.9l1.8,0.7l1.8,0.7l3.6,1.4
		c1.2,0.4,2.5-0.1,3-1.3l2.1-5.5l2.5-6.6L339.5,134.9L339.5,134.9z"/>
	<path class="st3" d="M376.5,145.2L376.5,145.2c2.8,0.5,5.7,0.9,8.5,1.3l0.9-6.9c-2.8-0.4-5.5-0.8-8.2-1.3c-2.9-0.5-5.8-1.1-8.7-1.8
		l-1.5,6.8C370.5,144.1,373.5,144.7,376.5,145.2L376.5,145.2z"/>
	<polygon class="st3" points="373.6,161.6 373.6,161.6 373.6,161.6 	"/>
	<path class="st3" d="M352.4,149.4c-2.5-0.7-4.9-1.5-7.3-2.3c-3-1-6-2.1-9-3.2l-2.5,6.6l1.9,0.7l0.9,0.3l0.5,0.2l0.5,0.2l1.9,0.6
		l1.9,0.6l0.9,0.3l0.5,0.2l0.5,0.1l0,0c2.5,0.8,5,1.6,7.5,2.4l1.4,0.4l2-6.7L352.4,149.4L352.4,149.4z"/>
	<path class="st3" d="M365.4,152.8l-1.5,6.8c3.2,0.7,6.5,1.4,9.8,2l1.2-6.9C371.7,154.1,368.5,153.5,365.4,152.8L365.4,152.8z"/>
	<path class="st4" d="M367.5,143.4l1.5-6.8l1.5-6.6c0.3-1.2-0.4-2.3-1.4-2.6l0,0l-0.4-0.1l-0.4-0.1l-0.8-0.2l-1.6-0.4l-0.4-0.1
		l-0.4-0.1l-0.8-0.2l-1.6-0.4c-0.1,0-0.3-0.1-0.4-0.1c-0.1,0-0.3,0-0.4,0c-0.3,0-0.5,0.1-0.7,0.3c-0.5,0.3-0.8,0.8-1,1.3l-1.9,6.5
		l-2,6.7l-2.7,9.2l-2,6.7l-1.6,5.6c-0.2,0.6-0.1,1.2,0.2,1.7c0.1,0.2,0.4,0.5,0.6,0.7c0.1,0.1,0.2,0.2,0.4,0.2
		c0.1,0.1,0.3,0.1,0.5,0.2l2,0.5l1,0.3l0.5,0.1l0.5,0.1l2,0.5l1,0.2l0.5,0.1l0.5,0.1c1.3,0.3,2.6-0.4,2.8-1.6l1.3-5.8l1.5-6.8
		L367.5,143.4L367.5,143.4z"/>
	<path class="st3" d="M405.7,148.3L405.7,148.3c2.9,0.1,5.8,0.1,8.7,0.1v-7c-2.8,0-5.6,0-8.4-0.1l0,0c-3-0.1-5.9-0.3-8.9-0.5l-0.5,7
		C399.5,148,402.6,148.2,405.7,148.3L405.7,148.3z"/>
	<path class="st3" d="M374.8,154.7l-1.2,6.9c3.1,0.6,6.1,1,9.2,1.4l0.9-6.9C380.8,155.7,377.8,155.2,374.8,154.7L374.8,154.7z"/>
	<path class="st4" d="M396.5,147.8l0.5-7l0.5-6.7c0.1-1.2-0.7-2.3-1.8-2.4l0,0c-0.5-0.1-1.1-0.1-1.7-0.1l-1.7-0.2
		c-0.5-0.1-1.1-0.1-1.7-0.2l-1.6-0.2c-0.5-0.1-1.1,0.1-1.5,0.5c-0.4,0.4-0.7,0.9-0.8,1.5l-0.9,6.6l-0.9,6.9l-1.3,9.6l-0.9,6.9
		l-0.8,5.8c-0.1,0.6,0.1,1.2,0.5,1.6c0.4,0.4,0.9,0.8,1.6,0.9l2,0.2c0.7,0.1,1.3,0.1,2,0.2l2,0.2c0.7,0.1,1.3,0.1,2,0.2
		c1.3,0.1,2.5-0.8,2.5-2l0.5-5.9l0.5-7L396.5,147.8L396.5,147.8z"/>
	<path class="st3" d="M435.1,147.6L435.1,147.6c2.9-0.2,5.8-0.5,8.6-0.9l-0.8-6.9c-2.8,0.3-5.6,0.6-8.4,0.8l0,0c-3,0.2-6,0.4-9,0.6
		l0.3,7C428.9,148,432,147.8,435.1,147.6L435.1,147.6z"/>
	<path class="st3" d="M405.3,157.9c-3.2-0.1-6.4-0.3-9.6-0.6l-0.5,7c3.3,0.3,6.6,0.5,9.9,0.6l0,0c3.1,0.1,6.2,0.2,9.3,0.2v-7
		C411.3,158.1,408.3,158,405.3,157.9L405.3,157.9z"/>
	<path class="st4" d="M425.8,148.2l-0.3-7l-0.3-6.7c0-0.6-0.3-1.1-0.7-1.5c-0.2-0.2-0.4-0.3-0.7-0.4c-0.2-0.1-0.5-0.2-0.8-0.1l0,0
		c-2.3,0.1-4.5,0.1-6.8,0.2c-1.1,0-2,1-2,2.2v6.7v7v9.6v7v5.9c0,1.2,1.1,2.2,2.4,2.2c2.7,0,5.3-0.1,8-0.2c0.3,0,0.6-0.1,0.9-0.2
		c0.3-0.1,0.5-0.3,0.7-0.5c0.4-0.4,0.6-1,0.6-1.6l-0.3-5.9l-0.3-7L425.8,148.2L425.8,148.2z"/>
	<path class="st3" d="M463.1,136.9c-3,0.5-6,1-9,1.5l1,6.9c3.1-0.5,6.1-0.9,9.1-1.5l0,0L463.1,136.9z"/>
	<path class="st3" d="M435.9,157.2L435.9,157.2c-3.2,0.3-6.4,0.5-9.6,0.6l0.3,7c3.3-0.1,6.5-0.4,9.8-0.6l0,0
		c3.1-0.2,6.1-0.6,9.1-0.9l-0.8-6.9C441.8,156.6,438.8,157,435.9,157.2L435.9,157.2z"/>
	<path class="st3" d="M467.2,160.1L467.2,160.1l-1.2-6.9c-3.1,0.6-6.3,1.1-9.4,1.5l1,6.9C460.9,161.2,464.1,160.6,467.2,160.1
		L467.2,160.1z"/>
	<path class="st4" d="M453.1,131.7c-0.2-1.2-1.2-2.1-2.4-1.9l0,0l-3.4,0.5l-3.4,0.4c-1.1,0.1-1.9,1.2-1.8,2.4l0.8,6.7l0.8,6.9
		l1.1,9.6l0.8,6.9l0.7,5.9c0.1,1.2,1.3,2.1,2.5,1.9l3.9-0.5l3.9-0.5c1.3-0.2,2.1-1.3,2-2.5l-0.9-5.8l-1-6.9l-1.4-9.5l-1-6.9
		L453.1,131.7L453.1,131.7z"/>
	<path class="st3" d="M493.2,137.4L493.2,137.4L493.2,137.4c2.8-0.7,5.6-1.5,8.5-2.3l-1.9-6.7c-2.8,0.8-5.5,1.5-8.3,2.2l0,0
		c-3,0.8-5.9,1.5-8.9,2.2l1.6,6.8C487.2,138.9,490.2,138.2,493.2,137.4L493.2,137.4z"/>
	<path class="st3" d="M463.1,136.9l1.2,6.9c2.9-0.5,5.7-1.1,8.6-1.6l-1.4-6.8C468.7,135.8,465.9,136.4,463.1,136.9z"/>
	<path class="st3" d="M466,153.2l1.2,6.9c3-0.5,6-1.1,9-1.7l-1.4-6.8C471.9,152.1,469,152.7,466,153.2L466,153.2z"/>
	<path class="st4" d="M484.2,139.6l-1.6-6.8l-1.5-6.5c-0.3-1.2-1.4-1.9-2.5-1.7l0,0c-2.3,0.5-4.6,1-6.8,1.5c-0.6,0.1-1,0.5-1.3,0.9
		s-0.4,1.1-0.3,1.6l1.3,6.6l1.4,6.8l1.9,9.4l1.4,6.8l1.2,5.8c0.1,0.6,0.5,1.1,1,1.4s1.1,0.4,1.7,0.3c2.5-0.5,5-1.1,7.6-1.7
		c1.2-0.3,2-1.5,1.7-2.7l-1.3-5.7l-1.6-6.8L484.2,139.6L484.2,139.6z"/>
	<path class="st3" d="M521.8,129.2l-2.1-6.7c-2.9,0.9-5.9,1.8-8.8,2.7l2,6.7C515.8,131,518.8,130.1,521.8,129.2L521.8,129.2z"/>
	<path class="st3" d="M495.6,146.7L495.6,146.7c-3.1,0.8-6.1,1.5-9.2,2.2l1.6,6.8c3.1-0.7,6.3-1.5,9.4-2.3l0,0l0,0
		c2.9-0.8,5.8-1.5,8.7-2.3l-1.9-6.7C501.4,145.2,498.5,146,495.6,146.7L495.6,146.7z"/>
	<path class="st4" d="M512.9,131.9l-2-6.7l-1.9-6.4c-0.4-1.2-1.5-1.8-2.6-1.5c-2.3,0.7-4.5,1.3-6.8,2c-1.1,0.3-1.8,1.5-1.4,2.7
		l1.8,6.5l1.9,6.7l2.6,9.3l1.9,6.7l1.6,5.7c0.3,1.2,1.6,1.9,2.8,1.5c2.5-0.7,4.9-1.4,7.4-2.1c1.2-0.4,1.9-1.6,1.5-2.8l-1.7-5.6
		l-2-6.7L512.9,131.9L512.9,131.9z"/>
	<path class="st3" d="M519.7,122.5l2.1,6.7c2.8-0.9,5.6-1.8,8.3-2.7l-2.2-6.6C525.2,120.8,522.4,121.6,519.7,122.5L519.7,122.5z"/>
	<path class="st3" d="M555.6,135.2l-2.4-6.6c-3,1.1-5.9,2.1-8.9,3.1l2.3,6.6C549.6,137.4,552.6,136.3,555.6,135.2L555.6,135.2z"/>
	<path class="st3" d="M524.7,138.4c-3,0.9-6,1.9-9.1,2.8l2,6.7c3.1-0.9,6.1-1.9,9.2-2.8c2.9-0.9,5.7-1.8,8.5-2.8l-2.2-6.6
		C530.3,136.5,527.5,137.5,524.7,138.4L524.7,138.4z"/>
	<path class="st4" d="M536.7,109.8c-0.4-1.2-1.6-1.8-2.7-1.4l0,0c-1.1,0.4-2.3,0.8-3.4,1.2c-1.1,0.4-2.3,0.8-3.4,1.2
		c-1.1,0.4-1.7,1.6-1.3,2.8l2.1,6.4l2.2,6.6l3,9.1l2.2,6.6l1.8,5.6c0.4,1.2,1.7,1.8,2.8,1.4c1.2-0.4,2.4-0.8,3.6-1.2
		c1.2-0.4,2.4-0.8,3.6-1.2c1.2-0.4,1.8-1.7,1.4-2.8l-1.9-5.6l-2.3-6.6l-3.2-9.1l-2.3-6.6L536.7,109.8L536.7,109.8z"/>
	<polygon class="st3" points="577.9,109.1 577.9,109.1 577.9,109.1 	"/>
	<path class="st3" d="M547.6,113L547.6,113c-2.9,1.1-5.8,2.1-8.7,3.1l2.3,6.6c2.9-1,5.9-2.1,8.8-3.1l0,0c2.8-1,5.5-2,8.2-3l-2.4-6.5
		C553.1,111.1,550.3,112.1,547.6,113z"/>
	<path class="st3" d="M577.9,109.1l-2.5-6.5c-2.9,1.1-5.8,2.2-8.7,3.3l2.5,6.5C572.1,111.4,575,110.3,577.9,109.1L577.9,109.1z"/>
	<path class="st3" d="M553.2,128.7l2.4,6.6c2.8-1,5.6-2.1,8.4-3.1l-2.4-6.6C558.8,126.6,556,127.7,553.2,128.7L553.2,128.7z"/>
	<path class="st4" d="M569.2,112.5l-2.5-6.5l-2.4-6.3c-0.4-1.1-1.7-1.7-2.8-1.3l0,0l-3.4,1.3l-3.4,1.3c-1.1,0.4-1.7,1.7-1.2,2.8
		l2.3,6.3l2.4,6.5l3.3,9l2.4,6.6l2,5.5c0.4,1.1,1.7,1.7,2.8,1.3l3.5-1.3l3.5-1.3c1.1-0.4,1.7-1.7,1.3-2.9l-2.1-5.5l-2.5-6.5
		L569.2,112.5L569.2,112.5z"/>
	<path class="st3" d="M605.8,98.3c2.8-1.1,5.5-2.1,8.3-3.2l-2.5-6.5c-2.8,1.1-5.5,2.1-8.3,3.2l0,0c-2.9,1.1-5.9,2.3-8.8,3.4l2.5,6.5
		C600,100.6,602.9,99.4,605.8,98.3L605.8,98.3z"/>
	<polygon class="st3" points="583.6,99.4 575.4,102.6 577.9,109.1 586.1,105.9 	"/>
	<path class="st3" d="M581.4,118.1L581.4,118.1c-2.9,1.1-5.9,2.2-8.8,3.4l2.5,6.5c3-1.1,5.9-2.2,8.8-3.4l0,0l8.3-3.2l-2.5-6.5
		C589.6,114.9,581.4,118.1,581.4,118.1z"/>
	<path class="st4" d="M597.1,101.7l-2.5-6.5l-2.4-6.3c-0.4-1.1-1.7-1.7-2.8-1.3l0,0l-6.9,2.7c-1.1,0.4-1.7,1.7-1.2,2.8l2.4,6.3
		l2.5,6.5l3.5,9l2.5,6.5l2.1,5.5c0.4,1.1,1.7,1.7,2.8,1.3l6.9-2.7c1.1-0.4,1.7-1.7,1.2-2.8l-2.1-5.5l-2.5-6.5L597.1,101.7
		L597.1,101.7z"/>
	<path class="st3" d="M633.9,87.8c2.8-1,5.6-2,8.3-3l-2.3-6.6c-2.8,1-5.6,2-8.4,3c-3,1.1-5.9,2.2-8.9,3.3l2.4,6.5
		C628,89.9,631,88.8,633.9,87.8L633.9,87.8z"/>
	<path class="st3" d="M609.3,107.3c-2.9,1.1-5.8,2.3-8.8,3.4l2.5,6.5c2.9-1.1,5.8-2.3,8.7-3.4l0,0c2.7-1.1,5.5-2.1,8.2-3.1l-2.5-6.5
		C614.8,105.2,612,106.3,609.3,107.3L609.3,107.3z"/>
	<path class="st4" d="M625.1,91l-2.4-6.5l-2.3-6.3c-0.4-1.1-1.7-1.7-2.8-1.3l0,0l-7,2.6c-1.1,0.4-1.7,1.7-1.3,2.8l2.4,6.3l2.5,6.5
		l3.4,9l2.5,6.5l2.1,5.5c0.4,1.1,1.7,1.7,2.8,1.3l6.8-2.6c1.1-0.4,1.7-1.7,1.2-2.8l-2-5.5l-2.4-6.5L625.1,91L625.1,91z"/>
	<path class="st3" d="M662.4,78l-2.1-6.6c-3,1-6,2-9.1,3l2.2,6.6C656.4,79.9,659.4,78.9,662.4,78L662.4,78z"/>
	<polygon class="st3" points="662.4,78 662.4,78 662.4,78 	"/>
	<path class="st3" d="M656.5,90.1l2.2,6.6c2.9-1,5.8-1.9,8.8-2.9l-2.1-6.6C662.4,88.1,659.5,89.1,656.5,90.1z"/>
	<polygon class="st3" points="667.5,93.8 667.5,93.8 667.5,93.8 	"/>
	<path class="st3" d="M637.2,96.8c-2.9,1.1-5.8,2.2-8.8,3.2l2.4,6.5c2.9-1.1,5.8-2.2,8.7-3.2c2.7-1,5.5-2,8.2-2.9l-2.3-6.6
		C642.7,94.8,640,95.8,637.2,96.8L637.2,96.8z"/>
	<path class="st4" d="M653.4,80.9l-2.2-6.6l-2.2-6.4c-0.4-1.2-1.7-1.8-2.8-1.4l0,0c-2.4,0.8-4.8,1.6-7.1,2.5
		c-1.2,0.4-1.8,1.7-1.4,2.8l2.2,6.3l2.3,6.6l3.2,9.1l2.3,6.6l2,5.6c0.4,1.2,1.6,1.8,2.7,1.4c2.3-0.8,4.5-1.6,6.8-2.3
		c1.1-0.4,1.7-1.6,1.3-2.8l-1.9-5.6l-2.2-6.6L653.4,80.9L653.4,80.9z"/>
	<path class="st3" d="M691.4,69.5c2.9-0.8,5.8-1.5,8.7-2.2l-1.6-6.8c-2.9,0.7-5.9,1.4-8.8,2.2l0,0c-3.1,0.8-6.2,1.7-9.3,2.5l1.9,6.7
		C685.3,71.1,688.3,70.3,691.4,69.5L691.4,69.5z"/>
	<path class="st3" d="M668.8,68.6c-2.9,0.9-5.7,1.8-8.6,2.7l2.1,6.6c2.8-0.9,5.7-1.8,8.5-2.7L668.8,68.6z"/>
	<path class="st3" d="M665.4,87.1l2.1,6.6c2.8-0.9,5.5-1.7,8.3-2.6l-2-6.7C670.9,85.4,668.2,86.2,665.4,87.1L665.4,87.1z"/>
	<path class="st4" d="M682.2,72l-1.9-6.7l-1.8-6.5c-0.3-1.2-1.6-1.9-2.8-1.5l0,0c-1.2,0.4-2.5,0.7-3.7,1.1s-2.4,0.7-3.7,1.1
		c-1.2,0.4-1.9,1.6-1.5,2.8l2,6.4l2,6.7l2.8,9.2l2,6.7l1.7,5.6c0.4,1.2,1.5,1.8,2.7,1.5c1.1-0.3,2.3-0.7,3.4-1s2.3-0.7,3.4-1
		c1.1-0.3,1.7-1.5,1.4-2.7l-1.6-5.7l-1.9-6.7L682.2,72L682.2,72z"/>
	<path class="st3" d="M720.9,62.8L720.9,62.8l-1.3-6.9c-3.2,0.6-6.3,1.2-9.5,1.9l1.4,6.8C714.7,64.1,717.8,63.4,720.9,62.8
		L720.9,62.8z"/>
	<path class="st3" d="M722.6,72.3c-3,0.6-6.1,1.2-9.1,1.8L715,81c3-0.6,5.9-1.2,8.9-1.8l0,0L722.6,72.3L722.6,72.3z"/>
	<path class="st3" d="M693.8,78.8L693.8,78.8c-3,0.8-6,1.6-9,2.5l1.9,6.7c2.9-0.8,5.9-1.7,8.8-2.4c2.8-0.7,5.5-1.4,8.3-2.1l-1.6-6.8
		C699.4,77.4,696.6,78.1,693.8,78.8L693.8,78.8z"/>
	<path class="st4" d="M711.6,64.7l-1.4-6.8l-1.4-6.6c-0.2-1.2-1.5-2-2.7-1.7l0,0l-3.8,0.8l-3.8,0.9c-1.2,0.3-2,1.5-1.7,2.7l1.6,6.5
		l1.6,6.8l2.3,9.4l1.6,6.8l1.4,5.7c0.3,1.2,1.4,1.9,2.5,1.7l3.4-0.8l3.4-0.8c1.1-0.2,1.8-1.4,1.6-2.6l-1.2-5.8l-1.4-6.8L711.6,64.7
		L711.6,64.7z"/>
	<path class="st3" d="M751,58.8L751,58.8c3-0.2,6-0.5,9-0.6l-0.4-7c-3.1,0.2-6.1,0.4-9.2,0.6l0,0c-3.2,0.3-6.5,0.6-9.7,1l0.8,6.9
		C744.6,59.4,747.8,59,751,58.8L751,58.8z"/>
	<path class="st3" d="M719.6,56l1.3,6.9c2.9-0.5,5.9-1,8.8-1.5l-1.1-6.9C725.6,54.9,722.6,55.4,719.6,56z"/>
	<path class="st3" d="M722.6,72.3l1.3,6.9c2.8-0.5,5.6-1,8.4-1.4l-1.1-6.9C728.3,71.3,725.5,71.8,722.6,72.3z"/>
	<path class="st4" d="M741.5,59.7l-0.8-6.9l-0.8-6.7c-0.1-1.2-1.3-2.1-2.6-1.9l0,0c-2.6,0.3-5.2,0.7-7.8,1.1
		c-0.6,0.1-1.2,0.4-1.5,0.9c-0.3,0.5-0.5,1-0.4,1.7l1,6.7l1.1,6.9l1.5,9.5l1.1,6.9l0.9,5.8c0.1,0.6,0.4,1.1,0.8,1.4
		c0.4,0.3,1,0.5,1.5,0.4c2.3-0.3,4.5-0.7,6.8-0.9c1.1-0.1,1.9-1.2,1.8-2.4l-0.7-5.8l-0.8-6.9L741.5,59.7L741.5,59.7z"/>
	<path class="st3" d="M781.4,57.9L781.4,57.9L781.4,57.9c3,0.1,6,0.3,9,0.5l0.5-7c-3.1-0.2-6.2-0.4-9.2-0.5l0,0
		c-3.3-0.1-6.6-0.1-9.8-0.1l0,7C775,57.8,778.2,57.8,781.4,57.9L781.4,57.9z"/>
	<path class="st3" d="M751.8,68.4L751.8,68.4c-3.1,0.3-6.1,0.6-9.2,0.9l0.8,6.9c3-0.3,6-0.7,9-0.9c2.8-0.2,5.6-0.4,8.4-0.6l-0.4-7
		C757.6,67.9,754.7,68.1,751.8,68.4L751.8,68.4z"/>
	<path class="st4" d="M771.8,57.8l0-7l0-6.7c0-0.6-0.3-1.2-0.7-1.6c-0.4-0.4-1-0.6-1.7-0.6l0,0l-2,0l-2,0.1l-2,0.1l-2,0.1
		c-0.7,0-1.2,0.3-1.6,0.7c-0.4,0.4-0.6,1-0.6,1.6l0.3,6.7l0.4,7l0.5,9.6l0.4,7l0.3,5.9c0,0.6,0.3,1.2,0.7,1.5s0.9,0.6,1.5,0.6
		l1.7-0.1l1.7-0.1l1.7-0.1l1.7,0c0.5,0,1-0.3,1.4-0.7c0.4-0.4,0.6-0.9,0.6-1.6l0-5.9l0-7L771.8,57.8L771.8,57.8z"/>
	<path class="st3" d="M803.2,52.6l-0.9,6.9c3.2,0.4,6.3,0.8,9.5,1.4l0,0l1.2-6.9C809.7,53.5,806.4,53,803.2,52.6z"/>
	<path class="st3" d="M781.1,67.6L781.1,67.6c-3.1-0.1-6.1-0.1-9.2-0.1l0,7c3,0,6,0,8.9,0.1l0,0c2.8,0.1,5.6,0.2,8.3,0.4l0.5-7
		C786.8,67.8,784,67.7,781.1,67.6L781.1,67.6z"/>
	<polygon class="st3" points="809,77.3 809,77.3 809,77.3 	"/>
	<path class="st3" d="M809,77.3l1.2-6.9c-3-0.5-6-0.9-9.1-1.3l-0.9,6.9C803.1,76.4,806.1,76.8,809,77.3L809,77.3z"/>
	<path class="st4" d="M804,46c0.1-0.6-0.1-1.2-0.5-1.6c-0.4-0.5-0.9-0.8-1.6-0.8l0,0l-2-0.2c-0.7-0.1-1.3-0.2-2-0.2l-2-0.2l-1-0.1
		c-0.3,0-0.7,0-1-0.1c-1.3-0.1-2.4,0.8-2.5,2l-0.5,6.7l-0.5,7l-0.7,9.6l-0.5,7l-0.4,5.9c-0.1,1.2,0.7,2.3,1.8,2.4
		c0.3,0,0.6,0,0.8,0.1l0.8,0.1l1.7,0.2c0.6,0.1,1.1,0.1,1.7,0.2l1.7,0.2c0.5,0.1,1.1-0.1,1.5-0.5c0.4-0.3,0.7-0.9,0.8-1.5l0.7-5.8
		l0.9-6.9l1.2-9.6l0.9-6.9L804,46L804,46z"/>
</g>
</svg>
